<svg xmlns="http://www.w3.org/2000/svg" xml:space="preserve" width="1500" height="1500"
    data-id="lg_lA0d5iVFqoQzIU0fzn" data-version="1" viewBox="0 0 1500 1500"><path fill="#fff" stroke="transparent" d="M0 0h1500v1500H0z"/><g data-padding="20"><g transform="translate(-458.302 -459.673)scale(1.57453)"><path fill="#ffccea" d="M767.407 532.876a242.093 242.093 0 1 0 0 484.186 242.093 242.093 0 1 0 0-484.186"/><rect width="477.487" height="414.71" x="32.186" y="241.479" fill="none" rx="0" ry="0" transform="rotate(-13.3 1888.167 -1512.365)"/><path fill="#c53683" d="M832.028 788.529q4.103 2.223 5.2 6.85t-1.342 8.597l-50.557 11.987 36.33 62.827q1.307 2.313 2.236 6.232t-2.706 10.794-8.98 8.144q-9.962 2.362-16.838-1.274l-45.282-78.367-90.782 21.526-6.32 52.633q-3.43 26.755-16.65 48.69t-40.992 28.52q-21 4.979-35.549-3.23-14.536-8.203-19.518-29.213-4.98-21 1.158-40.313t20.59-32.894q28.897-27.158 70.2-36.951L649.42 674.09q1.113-11.165 3.85-17.08-19.816-34.398-20.704-38.142-.885-3.735 3.134-9.77 4.022-6.025 9.367-7.292 10.32-2.447 17.197 1.189l113.066 196.16 46.552-11.417q6.053-1.435 10.146.79M591.801 960.74q26.704-6.332 33.532-64.731l4.51-42.81q-39.158 9.286-57.728 33.247-18.57 23.952-11.395 54.216 2.953 12.455 11.501 17.569 8.541 5.126 19.58 2.509m148.29-153.23-66.8-126.294-11.519 144.865Zm181.89-31.047q-15.469-1.625-30.889-3.827t-27.502-10.28q-12.092-8.073-15.934-24.326t8.75-29.976q12.59-13.725 41.347-20.523 28.747-6.795 47.364-.633 18.615 6.153 21.74 19.369 1.52 6.432-2.38 11.495-3.888 5.07-8.53 6.168-8.934 2.112-12.797-1.496 1.55-3.007-.183-10.335-1.73-7.32-14.24-10.773-12.5-3.457-26.077-.248-13.575 3.21-21.317 10.32-7.75 7.115-5.345 17.294t14.36 15.277q11.95 5.087 27.604 6.668 15.644 1.584 31.456 3.878 15.821 2.29 28.492 10.425 12.671 8.133 16.301 23.49 5.402 22.85-11.763 38.786-17.16 15.946-49.49 23.588-32.32 7.64-56.927-6.344-24.617-13.982-31.203-41.844-2.363-9.995.22-16.637 2.568-6.65 7.57-7.832 9.284-2.194 11.476.689l.973.9q-.885 5.86.974 13.724 5.657 23.93 23.306 36.343 17.641 12.425 42.282 6.6 37.866-8.95 31.886-35.816-4.813-20.36-41.524-24.124"/></g><path fill="transparent" stroke="transparent" stroke-width="1.633" d="M289.767 331.176h914.391v837.648h-914.39z"/></g></svg>