<?xml version="1.0" encoding="UTF-8"?>
<svg version="1.1" viewBox="0 0 1600 1395" width="658" height="574" xmlns="http://www.w3.org/2000/svg">
<path transform="translate(0)" d="m0 0h1600v1395h-1600z" fill="#FCFCFC"/>
<path transform="translate(781,193)" d="m0 0h12l35 5 33 7 14 5 8 2 2 4v4l10-1 28-6 37-5 25-2h36l29 3 29 5 25 7 21 8 21 10 19 12 16 12 13 12 10 10 9 11 9 12 9 15 11 21 4 11v2h3l2-4 6-9 6-18 9-34 2-2 13 47 5 11 8 10 11 8 18 6 38 10-2 2-42 11-13 5-8 6-5 4-6 8v7l7 4 6 7 11 9v2h2v2h2v2h2l4 7 4 5 5 5 4 6 3 7 6 9v2h2l4 9 8 16 10 23 6 12 4 10 4 11 6 13 4 13 4 17 2 9 2 8 3 8 5 21 2 9 2 31v60l-1 24-1 12-1 22-2 19-1 13-3 21-3 22-3 25-4 17-5 11-7 14-6 8-5 6h-2l-2 4-12 10-10 6-8 3-22 12-18 6-20 7-6 1v1h-7-3l-26 3-5-1-26-1-12-1 3 2-9-1 1-3-8 1-8-1-15-2-20-8-16-8-12-5-13-7-21-13-16-7-4-1-10-7-11-5-5-1-8-5-7-3-1-1-14 1-12 3-11-1v4l-4 1-3 3-5 4h-5v2l-12 1-6 3-33 22-19 12-25 14-18 10-21 10-16 8-34 14-21 8-43 13-35 8-30 5-26 3-22 1h-25l-29-2-29-5-24-6-25-9-23-11-16-10-11-8-10-8-15-14-12-13-14-19-2-5-7 4-8 9-6 15-11 39-2 5-2-3-12-44-8-16-10-9-12-6-27-8-23-6 4-2 44-12 11-5 8-6 7-8v-4l-5-1-7-8v-2h-2l-4-6-13-18-8-14-7-14-6-22-2-15-1-19-1-34-1-22v-19l1-16 2-9 4-23 5-19 6-27 2-7 5-18 3-9 12-39 6-13 4-11 6-15 5-12 8-16 8-17 7-13 8-13 6-11 5-7 4-7 11-14 15-20 9-9 9-11 3-4h2l2-4 5-5h2l2-4 6-5 4-5h2l2-4h2l2-4 8-7 8-8h2v-2l4-2 7-8 8-7h2v-2l20-13 4-3h2v-2l9-5 10-7 10-6 27-15 14-7 17-8 15-8 7-3 29-10 20-6 20-8 17-4 11-3 24-3 19-3 20-4z" fill="#AC77AD"/>
<path transform="translate(742,553)" d="m0 0 7 4 8-1 4-1h7l8 3 12 3 7 3 1 2 9 2 8 6 6 4v2l4 2 8 10 8 11 4 12 6 15 6 17 3 6 3 2 2 7 3 3v2h2v2l5 2-2 2h-3l2 10 3 1 2 7 1 13 1 8-2 7 5 4 2 4-1 2-11 4-6 5-2 4v12l4 8 7 6 13 6 15 4 13 2h28l14-3 12-5 11-7 9-9 5-8 3-9 1-12-2-14-5-12-6-8-10-7-17-8-28-10-16-8-8-6-5-7-2-7v-11l2-9 6-10 8-7 12-4h18l10 4 7 8 4 11v21l3 1h11l11-5 4-2-2 7v3l5 2 3 7 2 9 2 7 2 13 2 5 4 19 4 11 4 4 6 17 4 7v3l4 2 5 8v2h2l4 7v5l3 1 6 11 7 13 7 8 3 4v2l4 2 6 12 2 5 5 2-2 1v5l-7 7-7 8-10 10-1 2h-2v2l-8 7-22 22-8 7-15 13-13 11-11 9-13 10-19 14-15 11-18 12-20 13-24 14-29 16-33 16-31 13-24 9-34 11-36 9-32 6-24 3-34 2h-19l-30-2-30-5-20-5-24-8-24-11-14-8-14-10-14-11-7-7-7-6-7-8-12-15-8-12-1-3 11-5 45-12-16-5-29-8-16-8-9-9-6-10-5-15-9-34-1-13v-27l2-31 5-32 7-31 7-24 11-32 11-26 9-20 7-14 5-3v9l2-2v3l10-1 14-7 10-3 17-8v-4l10-4 3-6 23-7 4-2 3-3 15-5 5-3 18-6 3-3 16-5 7-3 10-1v2h5v3l2-1 30-3 9-2 13-2 9-2 27-1 3-1 2 2 7 3 5 3 1 4 6-1 6-8 2 2-1 7-40 100-15 38-12 30-8 19-27 10h-2l1 7h76l1-7-12-3-22-7 6-16 12-31 13-33 1-1h86l4 9 16 41 13 34v3l-12 3-16 3-1 6h99l1-1v-6l-13-2-14-2-3-2-8-20-17-41-19-46-15-37-17-41-4-10v-5l2-1 2 4-4-12z" fill="#F1EC92"/>
<path transform="translate(972,209)" d="m0 0h63l33 5 25 6 21 7 18 8 16 8 17 11 13 10 14 12 7 7 9 11 12 15 11 19 8 16 6 14-2 4-8 5-21 7-32 8-1 1 42 11 13 5 6 4 10 9 6 9 1 3 2 17v26l-2 28-6 37-11 44-15 43-15 35-14 28-13 23-13 22-12 19-8 11-9 13-11 15-11 14-9 12-2-1-1 2-5-1v-9l-2-6-4 2-8-11-5-8-3-5 1-3h2l-9-15-5-7-2-7-2-4v-3h-2l-8-15-3-12-3-7-4-13-2-11-1-3-4-25-3-3-2-19-3-2v-10l1-5h-3l1-8 2-6-5-1v-8l2-2v-3l-3-3-1-3 2-1 1-6-2-4 2-5-4-2 4-5-2-5 3-4-2-5h-2l-2-4-5-3-1-2h-2l-2 3-6-3-1 6-4-4-3 9-4 11-1 11-3-3v15l-3 12v4l-4 2-13-2v2h2v3l6 2-4 1-12-5-13-3h-23l-17 3-14 5-10 7-4 3v-3l-5-1-4-3-1-8-3-7-1-9h-2l-4-7-7-8-19-19-14-10-15-8-14-5-14-2-29-2-10 1h-5l-3 2-21 2-7 3-6 1-2-1v-2l-9 1h-15l-9 2-3-1-1 1-33 5h-3v2l-22 5h-12l2-2h-14v-2l-8 1h-18l-6 1-6-1-4 4-4-1 2-3-7 1 1-3-7 4-11 3-7 4-5 1-3 3-9 3-13 5-1-2-7 1-20 7-9 4-5 3-4-2 2-5 14-20 12-17 11-14 13-16 8-10 11-13 7-7 7-8 12-13 27-27 8-7 10-10 11-9 12-11 9-7 16-13 38-28 26-17 19-12 23-13 22-12 26-13 22-10 33-13 30-10 32-9 37-8 27-4z" fill="#AC77AD"/>
<path transform="translate(781,193)" d="m0 0h12l35 5 33 7 14 5 8 2 2 4 1 6-35 10-27 9-35 14-38 18-27 14-21 12-24 15-15 10-16 11-19 14-13 10-10 8-13 11-14 12-15 13-8 8-8 7-36 36-7 8-13 14-9 11-14 17-11 14-11 15-14 20-12 18-16 27-8 14-12 23-11 22-15 36-14 43-9 37-5 31-2 22-1 57-10 37-5 14-2 1-1-2-5-1-7-8v-2h-2l-4-6-13-18-8-14-7-14-6-22-2-15-1-19-1-34-1-22v-19l1-16 2-9 4-23 5-19 6-27 2-7 5-18 3-9 12-39 6-13 4-11 6-15 5-12 8-16 8-17 7-13 8-13 6-11 5-7 4-7 11-14 15-20 9-9 9-11 3-4h2l2-4 5-5h2l2-4 6-5 4-5h2l2-4h2l2-4 8-7 8-8h2v-2l4-2 7-8 8-7h2v-2l20-13 4-3h2v-2l9-5 10-7 10-6 27-15 14-7 17-8 15-8 7-3 29-10 20-6 20-8 17-4 11-3 24-3 19-3 20-4z" fill="#D5BDD9"/>
<path transform="translate(985,206)" d="m0 0h36l29 3 29 5 25 7 21 8 21 10 19 12 16 12 13 12 10 10 9 11 9 12 9 15 11 21 4 11v2h3l2-4 6-9 6-18 9-34 2-2 13 47 5 11 8 10 11 8 18 6 38 10-2 2-42 11-13 5-8 6-5 4-6 8-6 15-10 39-2 2-3-8-7-26v22l-1 23-3 26-4 23-6 26-6 20-12 36-16 38-17 34-14 24-12 20-18 27-12 17-13 17-13 16-8 10-11 13-15 16-12 13-7 8-8 7-21 21-8 7-11 10-8 7-14 12-14 11-18 14-19 14-33 22-19 12-25 14-18 10-21 10-16 8-34 14-21 8-43 13-35 8-30 5-26 3-22 1h-25l-29-2-29-5-24-6-25-9-23-11-16-10-11-8-10-8-15-14-12-13-14-19-2-5-7 4-8 9-6 15-11 39-2 5-2-3-12-44-8-16-10-9-12-6-27-8-23-6 4-2 44-12 11-5 8-6 7-8 4-8 7-23 6-23 1-57 3-29 4-24 11-44 14-41 15-35 19-38 12-21 14-23 12-18 12-17 8-11 12-16 11-13 11-14 12-13 7-8 15-16 34-34 8-7 13-12 11-9 11-10 20-16 24-18 17-12 27-18 20-12 25-14 23-12 29-14 34-14 25-9 41-12 41-9 37-5zm-13 3-27 3-30 5-31 7-31 9-30 10-37 15-41 20-19 10-24 14-15 9-33 22-18 13-21 16-10 8-16 13-11 10-11 9-14 14-8 7-29 29-7 8-12 13-13 15-11 14-13 16-24 34-9 13 2 4 6-2 2-2 16-6 14-5h5l2 2 16-7 6-2 4-3 6-1 6-4 12-3 4-2-1 2 8-1-3 4h4l4-4 9 1 3-1h23 3v1h14l-2 2h12l22-5v-2l16-2 20-3 2-1 4 1 10-2h17l4-1v2l4 1 7-2 5-2 20-2 3-2h8l12-1 24 2 17 3 12 5 17 9 13 10 23 23 3 6 2 3h2l2 13 3 7 1 4 4 4h4l1 3 8-7 10-5 13-4 13-2h23l16 4 9 4 4-1-6-2v-3h-2v-2l15 2 3-3-1-5 3-10v-15l3 3 1-11 4-11 3-9 4 4 1-6 4 3 3-1 1-2h2l4 4 3 2 1 3h2l2 6-3 4 2 5-4 5 4 1-2 7 2 4-1 4-2 2 2 4 2 1-1 4-1 1v8l5 1-3 10v4h3l-1 10v5l3 3 2 18 3 3 4 27 2 6 2 9 4 12 4 11 2 7 7 14h2l1 6 2 3 2 6 6 8 5 10 2 3-2 1-1 2 3 5 5 8 8 11h2l2-2 2 6v9l5 1 1-2 2 1 10-13 11-14 13-18 13-19 10-15 16-27 10-18 14-27 8-17 11-27 14-40 11-44 6-37 2-28v-26l-2-17-5-10-9-9-9-6-13-5-42-11 6-2 37-10 15-6 6-5-3-10-8-16-9-17-9-13-13-16-12-13-10-9-13-10-17-11-14-8-23-10-24-8-22-5-33-5zm-230 344 2 8 1 5-2-3-1 1 1 7 15 37 19 46 15 37 15 36 12 29 4 9 8 2 18 2 3 1v6l-1 1h-99l1-6 26-5 2-1-1-5-15-40-16-41-1-1h-86l-5 11-14 36-13 33 2 2 30 9h2l-1 7h-76l-1-7 10-3 19-7 8-19 12-30 35-88 12-30 9-22-1-7-9 9h-4l-1-4-8-5-5-2-2-1-7 1-22 1-13 3-15 2-11 2-22 2-2 1v-3h-5v-2l-14 2-9 4-12 4-3 3-11 4-9 3-10 4-8 3-2 3-19 6-8 3-2 5-10 4v4l-19 9-10 3-12 6-10 1-1-3-1 2v-9l-5 3-11 22-14 33-10 28-8 25-8 34-5 30-2 17-1 21v27l1 13 11 41 6 14 11 12 10 6 13 5 37 10 2 1-45 12-11 5 2 4 8 12 11 14 12 13 8 7 12 10 14 10 17 10 19 9 22 8 22 6 28 5 18 2 19 1h19l34-2 30-4 30-6 32-8 43-14 39-16 27-13 19-9 23-13 21-12 17-11 31-21 36-27 13-11 11-9 14-12 8-7 13-12 20-20 2-1v-2h2l7-8 10-10 7-8 1-1v-5l2-1-5-2-3-7-6-11-3-1-2-4-6-8-4-5-6-12-6-10h-2v-5l-4-7h-2l-2-4-5-8h-2l-1-5-4-8-5-14-5-6-5-17-3-15-2-5-2-14-3-8-1-6-2-4-5-2v-5l2-5-4 2-11 5h-11l-3-1v-21l-4-11-7-8-10-4h-18l-12 4-9 8-6 12-1 6v11l3 9 7 8 14 8 26 10 16 6 15 8 6 5 7 11 4 12 1 14-2 11-4 9-6 8-7 7-11 7-18 6-7 1h-28l-18-3-15-5-11-6-6-7-2-5v-12l4-6 6-4 9-3 1-3-5-5-2-3 2-6-1-8-2-18-2-2-2-1-2-10 5-1-3-3h-2v-2h-2l-2-4-2-2-2-7-3-3-7-17-6-17-4-11-4-7-8-11-7-8h-2l-1-3-15-10-7-1-1-2-13-5-14-4h-7l-7 2-7-1z" fill="#D5BB95"/>
<path transform="translate(531,624)" d="m0 0h4v2l5-2h3v4h7v4l4 1 2 3-1 4-9 1 1 6-4 7-1 4-9 3-2 9v7l-2 11-1 4-1 2-1 15-3 9v4l-6 1-1 3-2 9-1 1v17l-1 3 1 4-2 3-1 9-1 2 2 1-2 8-1 8 1 7v17l-1 7 1 5-2 5-2 12-2 4v5l-3 1-3-2-3 4 2 1h-2v3h2l1 5-1 4h-5l-1 9-1 8-1 5-1 7 1 10-1 5 3 7 1 4h2l3 10 3 1 2 6-2 3 5 1 2 2v5h2l1 5 8 1-1 2 2 1v2l5 2h9l8-3h8l5-2 28-2 7-1 37-2 11-2 36-3 23-1 47-5 23-3 19-2h8l21-4 11-1 7-1v2l8-1 1 3h5l1-2 4 4v3l-2 2 7 5 7-1 10-2 8-1 6-1 14-1 6-1 3 1 4 1 9 4 6 2 6 4 3 3h9l10-4 3-1 2 1v2l-19 14-25 17-20 13-24 14-29 16-33 16-31 13-24 9-34 11-36 9-32 6-24 3-34 2h-19l-30-2-30-5-20-5-24-8-24-11-14-8-14-10-14-11-7-7-7-6-7-8-12-15-8-12-1-3 11-5 37-10h7l-4 5 10 2h10l-3-2 10-1v-3l2-2v-3l1-5h-6v-5l3-2-3-9-3-3-3-2-1-6-6-15 1-5h-5l-1-8 1-7-5-2 1-6-6-12h-3l-2-4 1-3h-2l-3-13-1-12v-10l2-8v-11l-1-6-3-1 2-15 1-15v-21l2-8-1-5 5-17 6-11 4-6v-7l5-4 6-5 2-5 7-6 1-3 5-3 2-5 9-7 12-7 6-4h2v-3l6-1 2-5 6-4 3-1 3-5 12-6h2l1-4z" fill="#EFDCA6"/>
<path transform="translate(882,369)" d="m0 0h2v2l5-1h3l1 4v2h2l1-3h3l3 7 5-2 1 2 5-2 1 5h2l1-3h2l4 9-1 3h-2l4 9-4 2 2 7 2 6 2-3 3 1 3 7 1-1h5l4 5 2 1-1-3h2v2l2 1 2 4v3h2l1-1h4l3 5 5 5 2 4 5 8 5 7v2h2v3h2l7 10 1 3 4 2 8 11-2 2v3l3 5 2 2-3 3v2h2l1 3 5 4-2 4v5l3 5-2 6-4-4-3 9-4 11-1 11-3-3v15l-3 12v4l-4 2-13-2v2h2v3l6 2-4 1-12-5-13-3h-23l-17 3-14 5-10 7-4 3v-3l-5-1-4-3-1-8-3-7-1-9h-2l-4-7-7-8-19-19-14-10-15-8-14-5-14-2-29-2-10 1h-5l-3 2-21 2-7 3-6 1-2-1v-2l-9 1h-15l-9 2-3-1-1 1-33 5h-3v2l-22 5h-12l2-2h-14v-2l-8 1h-18l-6 1-6-1-4 4-4-1 2-3-7 1 1-3-7 4-11 3-7 4-5 1-3 3-9 3-13 5-1-2-7 1-20 7-9 4-5 3-4-2 2-5 14-20 12-17 11-14 13-16 8-10 11-13 7-7 7-8 12-13 7-7 5-3 6-6 8-3 8-4 3-1v-2l17-6 27-6 4-3 11-1 6-2 16-2 2-1h13v-2l4-2 12-2 9-2 12-2 24-1 10-2 5-2h12l27-3h11l25-2 1 1 20-1 8-2 3 1 3-2h5l2 2 5-2h3v2l12-5 5-1z" fill="#B88AA2"/>
<path transform="translate(972,209)" d="m0 0h63l33 5 25 6 21 7 18 8 16 8 17 11 13 10 14 12 7 7 9 11 12 15 11 19 8 16 6 14-2 4-8 5-21 7-32 8-1 1 42 11 13 5 6 4 10 9 6 9v68l-3 16h-1v-7l2-11-6 7h-2l-2 10-4 13-3 6-7 6-15 8-12 1-19-1-22-7-12-6-11-9v-2l-4-2-7-6-10-10-13-10-7-5v-2h-2v-2l-3-1-6-7-2-1v-2l-5-2-11-8-5-6-2-1v-2h-2l-7-8-16-15-5-7-5-5-5-6-10-15v-2h-2l-6-10-4-7-9-15-7-14-7-10-6-7-9-6-15-11-9-6v-2h-3v-2l-5-2-13-7-5-3-12-7-13-6-19-9-9-4-13-5-8-5-18-2-3-2h2v-2l25-9 34-10 30-7 21-4 31-4z" fill="#CAABCE"/>
<path transform="translate(742,553)" d="m0 0 7 4 8-1 4-1h7l8 3 12 3 7 3 1 2 9 2 8 6 6 4v2l4 2 8 10 8 11 4 12 6 15 6 17 3 6 3 2 2 7 3 3v2h2v2l5 2-2 2h-3l2 10 3 1 2 7 1 13 1 8-2 7 5 4 2 4-1 2-11 4-6 5-2 4v12l4 8 7 6 13 6 15 4 13 2h28l14-3 12-5 11-7 9-9 5-8 3-9 1-12-2-14-5-12-6-8-10-7-17-8-28-10-16-8-8-6-5-7-2-7v-11l2-9 6-10 8-7 12-4h18l10 4 7 8 4 11v21l3 1h11l11-5 4-2-2 7v3l5 2 3 7 2 9 2 7 2 13 2 5 4 19 4 11 4 4 6 17 4 7v3l4 2 5 8v2h2l4 7v5l3 1 6 11 7 13 7 8 3 4v2l4 2 6 12 2 5 5 2-2 1v5l-7 7-7 8-10 10-1 2h-2v2l-8 7-22 22-8 7-15 13-13 11-11 9-13 10-7 5-5-1-3 2h-3l-1 2-4 1h-9l-7-6-3-2-6-2-8-3-8-2-15 2h-7l-6 2h-7l-11 3-5-1-6-4v-3h2l-3-5-1-2 7-4v-3h3l1-4 3-3 9-2 1-4-3-3v-2l-4-5v-2l-1-3 1-1-1-11 2-2-1-7-1-3 1-6-4-1-3-6v-7l-1-6 1-5h-2l1-9 2-3h-3l-1-4-1-7-1-26-3-4 2-8h2l2-6-3-1 1-1v-6l-13-2-14-2-3-2-8-20-17-41-19-46-15-37-17-41-4-10v-5l2-1 2 4-4-12z" fill="#E0CF96"/>
<path transform="translate(1289,421)" d="m0 0 2 4 7 4 6 7 11 9v2h2v2h2v2h2l4 7 4 5 5 5 4 6 3 7 6 9v2h2l4 9 8 16 10 23 6 12 4 10 4 11 6 13 4 13 4 17 2 9 2 8 3 8 5 21 2 9 2 31v60l-1 24-1 12-1 22-2 19-1 13-3 21-3 22-3 25-4 17-5 11-7 14-6 8-5 6h-2l-2 4-12 10-10 6-8 3-22 12-18 6-20 7-6 1v1h-7-3l-26 3-5-1-26-1-12-1 3 2-9-1 1-3-8 1-8-1-15-2-20-8-16-8-12-5-13-7-21-13-16-7-4-1-10-7-11-5-5-1-8-5-7-3-1-1-14 1-12 3-11-1v4l-4 1-3 3-5 4h-5v2l-12 1h-3l18-14 16-12 10-8 14-12 10-9 11-9 8-8 8-7 16-16 6-3 6 2h5l3 3h12l2 1 7-1 1 1h11l7 1 10 2 13 5 2 2 6 2 3 5 6 2-1 2 8 3-2 1v2l4 1 2 3 11 2h9l9 3 13 1 5 1 30 1 16 2h13l9-2 18-1 9-3 16-4 24-9 6-4 9-5 7-5 7-2 4-4h2v-2l4-2 5-5 3-9 3-26 2-23 2-22 1-47-1-24-4-24-2-7-6-22-12-36-4-10-3-8-4-9-7-18-3-10h-2l-8-11-6-14-6-9v-2h-2l-4-5-8-5-5-10-1-3-4-2-9-6v-2l-5-2-5-3-12-3v-2l-6-2-3-4-1-11 1-3 3-1 3-10 4-24 5-16z" fill="#D6BEDA"/>
<path transform="translate(661,560)" d="m0 0 10 5 5 3 1 4 6-1 6-8 2 2-1 7-24 60-1-3 1-3-5 5-4 7-12 16h-2l-2 7h-3l-8-1h-2l-2 2-7-1h-12l-7 1-7 2-6 2-18 3-4 1v-4l-16 1 1-3-5-1-10-1-2-2 9-2 1-6 3-6v-5l9-2-1-4-1-2-3-1v-4h-7v-4l-8 2v-2l-21 6-2 1-1 3-14 7-3 5-6 3-3 2-2 5h-6v3l-20 12-9 7-2 5-5 2-1 4-7 6-2 5-6 5-4 3v7l-9 14-4 13-2 10 1 3-2 7v21l-2 21-1 9 3 3 1 4v11l-2 8v14l3 21h2l1 5 1 2h3l6 12-1 6 4 2v15h5v6l7 16v4l5 3 4 9-2 4h-2v5l6-1 1 4-2 4 2 2-2 2-2 3-7 3h-10l-9-1-1-4 2-2-1-2 4-1-16-5-29-8-16-8-9-9-6-10-5-15-9-34-1-13v-27l2-31 5-32 7-31 7-24 11-32 11-26 9-20 7-14 5-3v9l2-2v3l10-1 14-7 10-3 17-8v-4l10-4 3-6 23-7 4-2 3-3 15-5 5-3 18-6 3-3 16-5 7-3 10-1v2h5v3l2-1 30-3 9-2 13-2 9-2 27-1z" fill="#EDD2AF"/>
<path transform="translate(1308,400)" d="m0 0 2 1-5 6 2-1h11l7 6 6 9v3h2l12 21 8 13 6 11 8 16 14 35 3 8 7 19 10 36 8 36 4 23 3 31 1 23v76l-2 39-5 54-4 29-8 46-8 40-6 21-6 14-4 9-9 16-6 11h-2v2l-4 4h-2v2l-10 8-4 5-12 9-13 10-12 7-27 9-20 3-4 2-8 2-7 2h-15l-19-1-22-6-20-5 1-2-11-4v-1h13l-12-4-6-4h2v-2l-10-1-21-6-21-7-7-3-19-5-9-3-14-4-13-3-8-4-16-6-16-5-8-3v-1h12l-7-2v-1l6-1-3-2 6-1-5-2-1-2h-13l-13-2-9-1-14-4-1-1h-8l-6-3-12-1-2-2-9-1 1-5v-3l1-5-2-1 16-10 22-15 7-3 9-1 2 1v-2l7-1 1-3 4-1 1-3h4v-4h11l12-3 14-1 5 3 10 5 15 6 11 7 2 2 6 1 16 8 20 12 15 8 15 6 16 8 13 5 15 2 16 1v2l5 1-1-2 13 1 26 1 8 1 23-3 5-1h3l12-2 18-7 16-5 22-12 10-4 13-9 8-7 5-5 8-11 8-15 5-13 3-14 3-27 4-25 3-29 2-19 1-25 1-9 1-36v-50l-2-29-4-17-4-16-3-7-3-12-1-7-5-20-7-18-4-8-4-13-5-9-5-11-7-16-9-17-2-8h-2l-6-10-3-4-3-7-4-6-5-5-5-6v-3h-2v-2h-2v-2h-2l-5-5-12-11-4-4-4-2v-7l9-11z" fill="#EADEEB"/>
<path transform="translate(664,626)" d="m0 0h2l-1 9-42 105-8 19-27 10h-2v7h-2v5h-4l2 5 1 5 3 4-2 6 1 5h2v-9l7 3-4 5 1 8 6 5 3 6v3l-3 11v6l-2 5h-2l2 5h4l1 4-2 5 2 2 1 15-2 8-2 7 2 1 1 2v6l-3 2 2 5 4 5 2 9 2 2 2 7 3 4 17 2 3 2v1l29-1 54-5 21-3 14-1 36-5 6-3 6-1-1-3 7-2 1-2h3l-1-5 7-10 1-3 4-4-3-8 1-3h2l-1-4-3-2-1-8-2-9-4-4-1-9-3-1v-8l3-12 3-9v-13l-1-5 4 1-2-5-4-3-1-5 11-4 23-3 3-2-90-1v-1h86l15 1-1 4-1 2h-2l-1 8 3 5 1 30 2 4-1 2h3l-3 12h2l1 18 3 6 3 1v7l2 5-2 10 1 7-1 2 2 4v2l4 4v2l2 4-1 3-10 2-3 3-1 3h-3l1 4-6 3h-3v2h-5l-1-2h-8v-2l-12 3-10 1-17 3h-12l-55 7-31 3-33 2-25 2-11 2-41 2-3 1-28 2-5 2h-8l-8 3h-9l-6-2 1-3-3-1 1-1-7-2-1-5h-2l-2-6-5-2 1-5-2-4-4-4-1-7h-2l-3-5-2-8 1-8-1-8 2-6v-3l2-14 1-4 5 1v-9h-2v-6l3-3 2 1 4 1-1-6 3-6 2-12 1-4-1-7 1-8v-17l-1-4 1-6 2-8-1-3 1-9 2-4-1-5 1-1v-17l2-5 1-8 5-2h3l-1-5 3-7 1-15 2-3 1-11 1-5 1-10 1-4 14 1 5 1-2 4 7-1h9v4l4-2 22-4 7-3h7l6-1h8l7 1 3-3 1 1 8 1 2 1 3-7 5-5 8-11 7-11z" fill="#F0E698"/>
<path transform="translate(766,246)" d="m0 0h30l1 3-3 3-3 2-40 19-27 14-21 12-24 15-15 10-16 11-19 14-13 10-10 8-13 11-14 12-15 13-8 8-8 7-36 36-7 8-13 14-9 11-14 17-11 14-11 15-3 4h-5v2h-3v2l-5 2h-9l-1 2h-4l-1 3-9 1-1 3-8 4h-2l1-6-5 1v-4l-11 2-6-2h-6l-16 8-10 6-11 6-4-1 1-8 3-5 5-11 3-9 1-4 1-5 4-8 6-11 4-8h2l2-6 5-5 6-11 6-8h2l2-5 6-7 7-11 3-4h2l2-4 5-7 5-5 4-5h2l2-4 8-7 1-2h2l1-3 8-7 5-7 4-3h2v-2l5-3 5-4 4-5 5-2v-2l9-6 7-4 11-10h2v-2l16-12 30-18 16-9 12-5 11-5 10-5 11-3 21-9 19-8 11-4 16-4 11-2 9-2 17-4 17-5 20-3z" fill="#AC77AD"/>
<path transform="translate(379,981)" d="m0 0h7l-2 1-1 7 14 3 17 2 29 2h43l44 1 12 1 35 1 38 2h19l6 1h18l10 1 36 1 33 2 65 1 7 1h20l13 2 2 5 17-4 22-9h4v3l-25 14-22 12-29 14-31 13-24 9-34 11-36 9-32 6-24 3-34 2h-19l-30-2-30-5-20-5-24-8-24-11-14-8-14-10-14-11-7-7-7-6-7-8-12-15-8-12-1-3 11-5z" fill="#FBFAFB"/>
<path transform="translate(972,209)" d="m0 0h63l33 5 25 6 21 7 18 8 16 8 17 11 13 10 14 12 7 7 9 11 12 15 11 19 8 16 6 14-2 4-8 5-21 7-32 8-1 1 27 7v2h-3l3 3-2 1 1 2-10 3-9 7-8 4-18 4h-7l-12-3-10-6v-2l-4-2-11-8-9-10-7-8-7-6-5-5-7-5v-2h-2v-2l-4-2-15-15-16-14v-2l-4-2-5-3-5-5-8-7-10-8-11-9-11-8-5-2v-2l-4-2-14-10-11-7-11-8-13-8-10-6-11-9-12-5 1-2h3v-2l26-5 31-4z" fill="#EADEEB"/>
<path transform="translate(737,460)" d="m0 0h26l30 2 25 5 20 6 22 8 6 5 8 4 5 4v2h2v2l4 1 6 7h4l-1 3 8 7 4 4 5 4 3 4 2 7 4 12h2v5l3 6 2 11v7 4 4l8 3 12 1v1l-19 2-17 3-14 5-10 7-4 3v-3l-5-1-4-3-1-8-3-7-1-9h-2l-4-7-7-8-19-19-14-10-15-8-14-5-14-2-29-2-10 1h-5l-3 2-21 2-7 3-6 1-2-1v-2l-9 1h-15l-9 2-3-1-1 1-33 5h-3v2l-22 5h-12l2-2h-14v-2l-8 1h-18l-6 1-6-1-4 4-4-1 2-3-7 1 1-3-7 4-11 3-7 4-5 1-3 3-9 3-13 5-1-2-7 1-20 7-9 4-5 3-4-2 2-5 14-20 12-17 5-4 2-2h3l2-2 2 1 1-3 8-4 29-10 2-1h7v-2l16-4 3-2 13-3 12-4 15-3h7l19-4 15-1 10-2 20-2 23-3 8-3 19-3z" fill="#C5A59B"/>
<path transform="translate(790,154)" d="m0 0h12l9 1h13l4 1 18 1 25 4 24 7 28 9 10 5 18 10 8 5-1 5-9 6 2 2-33 5-28 6h-7l2-1-2-8-11-2-15-5-35-7-29-4h-12l-26 4-14 3-21 3-15 2-24 6-23 9-20 6-20 7-12 4-10 6-19 9-14 7-19 10-14 8-11 7-10 7-3 2h-3v2l-24 16h-2v2l-10 8-7 8-4 1v2l-8 7-5 5h-2l-1 3-7 6-7 8-7 6-5 5-5 6h-2l-2 4-13 15-7 7-7 10-20 26-3 6-8 12-5 10-8 13-11 23-9 17-6 17-4 9-5 14-7 15-7 25-5 17-3 9-4 15-4 16-7 29-2 8h-1l1-18 3-29 3-24 6-28 4-17 8-26 9-27 5-14 5-11 7-16 12-24 10-19 13-22 12-17 12-16 2-3h2l1-5 10-14 9-10h2l2-4 7-8h2l2-4 4-5 5-5 9-10 1-2h2l2-4 8-7 5-4h2l1-3 5-4 5-5 3-1 2-4 14-11 9-7 10-8 10-7 21-12h3v-2l12-6 9-6 14-9 12-5 28-13 10-4 19-8 25-8 32-9 17-5 24-7 22-2z" fill="#EADEEB"/>
<path transform="translate(1285,430)" d="m0 0h1l-1 17-1 2 4 2v2l5 2 19 14 5 4 4 5 2 1 6 12 5 5 5 9 3 2 2 6h2l9 16 4 7 4 8 4 10 7 20 7 12 5 13 4 15 5 15 5 18 5 22 2 10 2 7 2 16v9l1 12v14l-1 15-1 40-4 51-4 33-4 25-3 14-6 10h-2l-1 4-7 8-13 8-9 6-22 11-9 2-10 5-4 1h-14l-12 3h-2l-3-1h-8l-4 2-11-1-9-2-7-2-10-2-7-1v-1l-12-2-11-1-9-3-12-3-6-4-4-2v-1l-8-2-9-3-17-4-4-2-2 1-10-3-4-3-7-1-21-7-7 1-7-2-9-2-9-1h-12l-7-2-4-1-9-1-11-1h-3l15-13 17-16 13-13 6-3 6 2h5l3 3h12l2 1 7-1 1 1h11l7 1 10 2 13 5 2 2 6 2 3 5 6 2-1 2 8 3-2 1v2l4 1 2 3 11 2h9l9 3 13 1 5 1 30 1 16 2h13l9-2 18-1 9-3 16-4 24-9 6-4 9-5 7-5 7-2 4-4h2v-2l4-2 5-5 3-9 3-26 2-23 2-22 1-47-1-24-4-24-2-7-6-22-12-36-4-10-3-8-4-9-7-18-3-10h-2l-8-11-6-14-6-9v-2h-2l-4-5-8-5-5-10-1-3-4-2-9-6v-2l-5-2-5-3-12-3v-2l-6-2-3-4-1-11 1-3 3-1 3-10 4-24z" fill="#C9A1C7"/>
<path transform="translate(985,206)" d="m0 0h36l29 3 29 5 25 7 21 8 21 10 19 12 16 12 13 12 10 10 9 11 9 12 9 15 11 21 4 11v2h3l2-4 6-9 6-18 9-34 2-2 13 47 5 11 8 10 11 8 18 6 38 10-2 2-42 11-13 5-8 6-5 4-6 8-6 15-10 39-2 2-3-8-7-26v22l-1 23-3 26-4 23-6 26-6 20-12 36-16 38-17 34-14 24-12 20-18 27-12 17-13 17-13 16-8 10-11 13-15 16-12 13-7 8-8 7-21 21-8 7-11 10-8 7-14 12-14 11-18 14-19 14-33 22-19 12-25 14-18 10-21 10-16 8-34 14-21 8-43 13-35 8-30 5-26 3-22 1h-25l-29-2-29-5-24-6-25-9-23-11-16-10-11-8-10-8-15-14-12-13-14-19-2-5-7 4-8 9-6 15-11 39-2 5-2-3-12-44-8-16-10-9-12-6-27-8-23-6 4-2 44-12 11-5 8-6 7-8 4-8 7-23 6-23 1-57 3-29 4-24 11-44 14-41 15-35 19-38 12-21 14-23 12-18 12-17 8-11 12-16 11-13 11-14 12-13 7-8 15-16 34-34 8-7 13-12 11-9 11-10 20-16 24-18 17-12 27-18 20-12 25-14 23-12 29-14 34-14 25-9 41-12 41-9 37-5zm-13 3-27 3-30 5-31 7-31 9-30 10-37 15-41 20-19 10-24 14-15 9-33 22-18 13-21 16-10 8-16 13-11 10-11 9-14 14-8 7-29 29-7 8-12 13-13 15-11 14-13 16-24 34-12 18-15 25-10 17-20 39-13 30-10 27-10 31-8 34-5 30-2 17-1 21v27l1 13 11 41 6 14 11 12 10 6 13 5 37 10 2 1-45 12-11 5 2 4 8 12 11 14 12 13 8 7 12 10 14 10 17 10 19 9 22 8 22 6 28 5 18 2 19 1h19l34-2 30-4 30-6 32-8 43-14 39-16 27-13 19-9 23-13 21-12 17-11 31-21 36-27 13-11 11-9 14-12 8-7 13-12 20-20 2-1v-2h2l7-8 10-10 7-8 11-12 9-11 10-12 11-14 10-13 10-14 13-19 10-15 16-27 10-18 14-27 8-17 11-27 14-40 11-44 6-37 2-28v-26l-2-17-5-10-9-9-9-6-13-5-42-11 6-2 37-10 15-6 6-5-3-10-8-16-9-17-9-13-13-16-12-13-10-9-13-10-17-11-14-8-23-10-24-8-22-5-33-5z" fill="#010101"/>
<path transform="translate(1016,529)" d="m0 0 3 1 3 3 4 3v3h2l3 6-3 4 2 5-4 4 3 2-1 7 2 4-2 5-1 3 2 1 2 2-1 4-1 1-1 8h5l1 2-4 13h3v12l-1 3 4 2 1 10v9l3 1 2 9 3 20 2 6 2 9 4 12 4 11 2 7 6 12v2h2l4 9 2 6 6 8 5 10v4l-1 2 3 5 5 8 7 10 2 1 2-4 3 8-1 9 5 1 1-3 1 3-13 15-9 10-3 3 1-5-5-2-3-7-6-11-5-5-6-8-4-5-6-12-5-9-2-1-4-12h-2l-7-11-2-1-6-13-5-14-5-6-5-17-3-15-2-5-2-14-3-8-1-6-1-4-5-2-1-5 1-4-3 3-10 4h-11l-4-2v-21l-4-11-6-7-10-4h-18l-12 4-8 7-6 12-1 6v11l3 9 6 7 14 8 26 10 16 6 15 8 7 6 7 11 4 12 1 14-2 11-4 9-6 8-8 8-11 7-18 6-7 1h-28l-18-3-15-5-11-6-7-8-2-5v-12l4-6 7-5 10-3 4 15 6 12 4 5 10 7 12 4 6 1h13l12-3 10-6 5-6 4-11v-17l-4-8-9-8-16-9-36-15-16-9-9-8-6-10-3-11v-15l3-11 4-8 9-10 7-6 10-5 13-4 13-2h23l16 4 9 4h2l-4-2v-3h-2v-2h8l7 1 2-4-1-3 3-10v-16l3 3 1-10 4-11 2-6 2-4 3 4 2-5 6 2z" fill="#B281A3"/>
<path transform="translate(782,216)" d="m0 0h25l27 4 16 2 9 3 2 2v2l-32 10-33 13-4-1 4-3-2-1h-28l-28 3-17 3-24 7-13 2-12 3-14 3-17 6-20 9-19 8-11 3-9 5-10 4-13 6-15 8-15 9-18 11-5 4-5 2-1 3h-2v2l-10 8-7 6-9 5-3 1v2l-5 2-1 3h-2l-2 4-6 5h-3v2l-4 3h-2l-2 4-9 10-3 3h-2l-2 4h-2l-2 4-8 7-6 8h-2l-2 4-5 7h-2l-2 4-7 11-8 10-1 2h-2l-2 4-6 9-3 6-6 7-2 4h-2l-1 5-5 8-4 8-4 9v5l-3 7-5 12-3 6-1 1-1 8 5-1 9-5 16-9 10-5 11 1 4 1 8-1 1 3 5-1-2 10-7 3v5l-6 2-2 4-6 2-3 3-10 6-9 5h-2l-1 4-15 8-6 4-2 4-10 5-8 5-3 3-9 5-4-1-1 3-2 2-1 4-4 4-2 4-4 4v-7l2-9 3-8 5-16 3-7 5-16 4-9 7-15 8-19 5-13 10-18 5-5 4-12 12-20 5-10 4-2 1-4 6-7 7-10 6-8 7-9 7-10 7-9 4-4h2v-2l3-3h2l1-3 5-4 2-3h2l2-4 7-8h2v-2h2v-2l6-4 5-5h2v-2h2v-2l5-4h2l2-4 7-4 6-6h2l1-3 11-8 11-9 5-4 9-5 9-6 7-4 8-6 11-6 17-9 18-8 15-8 9-4 17-8 19-6 12-3 15-4 9-3 9-2 5-2 16-4 15-4 28-2 16-2z" fill="#CAABCE"/>
<path transform="translate(709,526)" d="m0 0h16l6 13 12 30 16 39 19 46 15 37 15 36 12 29 3 8 8 2 18 2 4 2v7l-2 1-99-1v-6l5-2 24-4-17-45-16-41h-86l-18 46-13 33 8 3 25 8v7l-1 1h-76l-1-1v-7l15-6 12-4h2l3-9 14-35 37-93 38-95z" fill="#010101"/>
<path transform="translate(926,599)" d="m0 0h18l10 4 7 8 4 11v21l3 1h11l11-5 4-2-2 7v3l5 2 3 7 2 9 2 7 2 13 2 5 4 19 4 11 4 4 6 17 4 7v3l4 2 5 8v2h2l4 7v5l3 1 6 11 7 13 7 8 3 4v2l4 2 6 12 2 5 5 2-2 1v5l-7 7-7 8-10 10-1 2h-2v2l-8 7-10 10-1-2h-4v2h-3l-1 2-8 1-3-7-5-7-3 1-2-3-3-1v-2l-4-1-8-7-2-3-5-2-6-7-5-7-7-15-2 2-6-11-4-9-3-9-5-5-7-2-5-5 2-5 5-3-4-2 14-3 12-5 11-7 9-9 5-8 3-9 1-12-2-14-5-12-6-8-10-7-17-8-28-10-16-8-8-6-5-7-2-7v-11l2-9 6-10 8-7z" fill="#B88AA2"/>
<path transform="translate(439,537)" d="m0 0h4l-2 5-11 15-10 16-17 28-13 24-16 32-15 36-14 43-9 37-5 31-2 22-1 57-10 37-5 14-2 1-1-3 1-2-5-2-4-8v-3h-2l-5-10-6-10-1-3-3-2-7-16-7-22-1-10 2-14 2-3h2l-1-5h4v-3l9-2 1-4-2-3 1-6 3-1 4-8 3-21 4-9v-7l3-8 3-5 1-8 1-7 3-1v-12l4-14 2-10 3-5 4-17 5-5 1-11 1-3-5 3-2-3-9 6h-5-2l-12 9h-6l-8 5-1-4-5-2v-12l3-9 5-9 3-5 1-2h2l1-5 4 2 9-5 2-1-1-2 14-7 7-4 2-4 18-10 2-1 1-3 12-7 9-5h2l1-3 7-3 3-3 3-1v-5l7-4 4-4 7-3 3-3 7-1 3-3 9-2 8-1v-2h3z" fill="#DEBEAF"/>
<path transform="translate(905,942)" d="m0 0 7 1 2 2 7 2 9 4 7 6h9l10-4 3-1 2 1v2l-19 14-25 17-20 13-8 5h-2v-2l-16 6-13 5-8 2h-6l-2-4-13-2h-25l-2-1-65-1-33-2-42-1-5-1h-17l-6-1h-22l-35-2-35-1-14-1-43-1h-47l-28-2-24-4-4-2 1-5v-3l4-2 7-2h7l-3 1 1 6 12 1 21 2h23l53-3 25-2 9-1 17-1 64-5 12-1 5-1 47-1 22-1h30l1-1 15-1 19-1 8-1v-1l14-2v-1l20-2v-1l10-2 3-2 8-2v-1l12-1 1-3h9l11-3h7l9-2 14-1z" fill="#F6EEC7"/>
<path transform="translate(740,438)" d="m0 0h34l20 2 20 1 20 3 15 3 9 1 1 2 20 4 12 6 8 2 9 5 5 2v2l5 1 5 3 1 2 3 1 4 5v3h2l3 4v5l3 1 3 5 4 6 5 10 3 8 1 5 3 20 1 3 1 17 1 3-3 7-1 2 1 7 2 2-26-1 1-2-8-3-2-6 1-3v-7l-3-14-2-4-1-3-4-10-2-4-2-7-4-5-6-4-6-7-3-3h2v-2l-4 1-7-8-3-1v-2h-2l-5-5-11-6-5-4-29-10-24-6-12-2-33-2h-23l-41 4-19 3-8 3-30 4-18 2-11 1-13 2-15 3h-9l-23 6-10 3-15 5-9 1v2l-9 2-34 12-2 2-6 4-4 1-4 3 2-4 11-14 5-6 6-4h3l10-5 7-3 6-1 1-4 15-5 13-2v-2l7-1 13-4 21-5 10-2h6v-2l23-5 15-2v-2l16-2 5-1 24-2 26-4 25-2z" fill="#BF92A3"/>
<path transform="translate(901,220)" d="m0 0 4 1-3 1 14 7 11 9 12 7 15 10 13 9 12 8 8 6v2l5 1 20 15v2l5 2 10 9 3 2v2l4 2 3 2v2l5 2 5 5 13 12 8 7 11 11 2 1v2h2v2l5 2 7 6v2l4 2 10 10 7 8 4 5 9 6 4 3v2l5 2 8 4 9 2h7l18-4 9-5 10-7 6-2 1-3-1-2 7-1 20 6 9 5 12 11 1 4 1 8 2 7-2 3-6-2-4 3-10 4-5 4-6 1-8 6-6 2-4 1-1 6-6 12h-2v2l-11 3-15-2-11-3-6-3-4-4-10-8-12-12-9-11-6-5v-2h-2l-14-16-7-9v-2h-2l-7-8-9-10-12-13-5-5-8-9-5-5-13-11-3-2v-2l-4-2-12-9v-2l-7-2-1-3h-3l-1-3-10-7-8-6v-2l-5-2-7-5v-2l-4-2-10-7-14-10-6-4-12-6-16-10-11-5-9-5v-2l-5-2-11-3-7-2v-2l29-8z" fill="#D5BDD9"/>
<path transform="translate(882,369)" d="m0 0h2v2l5-1h3l1 4v2h2l1-3h3l3 7 5-2 1 2 5-2 1 5h2l1-3h2l4 9-1 3h-2l4 9-4 2 2 7-2 2-7 3-1 2-4 2-20 3v-2h-14l-1-3-9 1-26-1h-39l-17-1-6-1-10 1-22 1-19 3-14 1-16 2-9 1h-8l-27 3-22 4-25 5-16 4-17 5-25 8-18 5-9 1v2l-4 1-1-2-4 2-4 3 2-4 7-7 7-8 9-9 5-3 6-6 8-3 8-4 3-1v-2l17-6 27-6 4-3 11-1 6-2 16-2 2-1h13v-2l4-2 12-2 9-2 12-2 24-1 10-2 5-2h12l27-3h11l25-2 1 1 20-1 8-2 3 1 3-2h5l2 2 5-2h3v2l12-5 5-1z" fill="#B281A3"/>
<path transform="translate(661,560)" d="m0 0 10 5 5 3 1 4 6-1 6-8 2 2-1 7-24 60-1-3 1-3-5 5-4 7-12 16h-2l-2 7h-3l-8-1h-2l-2 2-7-1h-12l-7 1-7 2-6 2-18 3-4 1v-4l-16 1 1-3-5-1-10-1-2-2 9-2 1-6 3-6v-5l9-2-1-4-1-2-3-1v-4h-7v-4l-8 2v-2l-16 4v-2l-6 1 1-3-5 1h-3l1-3-5 2-1-2-4 1v-2l-6 3h-3l-4-1 6-3h2l2-4 8-2 1-4 12-4 5-3 6-3 9-4 16-5 3-5 10-3 4-8 10-1 1-3 14-2 30-5 9-2 27-1z" fill="#EBDD96"/>
<path transform="translate(1285,430)" d="m0 0h1l-1 17-1 2 4 2v2l5 2 19 14 5 4 4 5 2 1 6 12 5 5 5 9 3 2 2 6h2l9 16 4 7 4 8 4 10 7 20 7 12 5 13 4 15 5 15 5 18 5 22 2 10 2 7 2 16v9l1 12v14l-1 15-1 40-4 51-4 33-4 25-3 14-6 10h-2l-1 4-7 8-13 8-9 6-22 11-9 2-10 5-4 1h-14l-12 3h-2l-3-1h-8l-4 2-11-1-9-2-7-2-10-2-7-1v-1l-12-2-11-1-9-3-12-3-6-4-4-2v-1l-8-2-2-2h7l13 3 24 2 21 1 12 2h8v-1h39l25-6 1-3 11-4 13-4 6-4-1-1h-15l-8 2h-5l5-4 6-3 13-4 16-7 4-4 10-6 10-7 6-2 1-4 3-3h2l7-14 1-3h2v-11l1-9 2-16 2-18v-12l-1-5 1-10 1-47-1-24-4-24-2-7-6-22-12-36-4-10-3-8-4-9-7-18-3-10h-2l-8-11-6-14-6-9v-2h-2l-4-5-8-5-5-10-1-3-4-2-9-6v-2l-5-2-5-3-12-3v-2l-6-2-3-4-1-11 1-3 3-1 3-10 4-24z" fill="#CAABCE"/>
<path transform="translate(740,489)" d="m0 0 33 1 13 1 10 2 6 2 15 3 14 4 14 7 13 11 5 5 6 5 3 4v2l4 2 7 9 2-2 6 9 5 10v17l-1 9h-3l2 5 9-2 2 1v2l-9 4-9 6-4 3v-3l-5-1-4-3-1-8-3-7-1-9h-2l-4-7-7-8-19-19-14-10-15-8-14-5-14-2-29-2-10 1h-5l-3 2-21 2-7 3-6 1-2-1v-2l-9 1h-15l-9 2-3-1-1 1-33 5h-3v2l-22 5h-12l2-2h-14v-2l-8 1h-18l-6 1-6-1-4 4-4-1 2-3-7 1 1-3-7 4-5 1 1-3h2v-2l9-3 1-2h2l2-6 6-5 1-2 8-2v-2l26-6v2l16-4h11l16-3 7-1 4 1 22-3 17-3 30-4h41z" fill="#CBB09B"/>
<path transform="translate(527,661)" d="m0 0h5l-1 16-2 11-1 4-1 2-1 15-3 9v4l-6 1-1 3-2 9-1 1v17l-1 3 1 4-2 3-1 9-1 2 2 1-2 8-1 8 1 7v17l-1 7 1 5-2 5-2 12-2 4v5l-3 1-3-2-3 4 2 1h-2v3h2l1 5-1 4h-5l-1 9-1 8-1 5-1 7 1 10-1 5 3 7 1 4h2l3 10 3 1 2 6-5-1-9-12-8-12-5-3-3-5 1-4-3-1v-6l-5-2v-11l-3-1-3-6v-6l-3-6v-12l-3-5-1-13 1-4v-14l-2-1 1-4-2-7 3-20 3-22 5-21 2-6-1-3h3l2-11 3-9 7-10 5-4 4-9 5-2 1-4 5-4 3-3 5-4h2l1-5 18-6z" fill="#F6E5A2"/>
<path transform="translate(903,997)" d="m0 0h3v5l-1 5-1 3h9l2 2 12 1 7 3h7l15 5 19 2 7 1h9l3 2 5 4-5 1 3 2-4 1 3 2-2 1h-8l2 2-12 1v1l-15 1v1l-21 1-1 2h-9v2l7 1 4 4 14 4 11 2 3 2-8 1 17 5 9 3 14 4-4 1h-2l6 2 2 1 1 3 6 2v1l-13-1 7 2-3 2 8 2 14 3-2 2 3 1v-2l9 1v1h-7l9 2 9 1 2 2-6 2h-7l15 3 14 3 7 1v1h-10l-10-2-13-3-23-4-17-3-23-2-7-1v-2l-10-1-1-1-9-1-1-1h-10l-15-3-10-3-26-3-27-4-31-4-7-1-28-1-7-2 1-8-2-2 22-9 20-9 16-8 23-12 24-14z" fill="#FDF9F0"/>
<path transform="translate(834,239)" d="m0 0 4 1 7 3 7 2 1 2 7 3 22 11 18 8 5 3v2l10 3 13 8 10 5 5 4 7 4 10 7 10 6-5-5-4-3 1-2 5 2 12 9 5 3 10 10 11 8 10 8 4 5 2 2 6 5v2h2l16 20 9 10 4 7 6 6v2h2l7 8 7 7 1 4 3 1 7 9 10 10 7 8 28 28 6 7 10 7 13 8 13 5 4 2 6 1-2 2h-6l6 1v1h-8l-12-5-16-6-9-6v2l3 1 1 2 2 1 5 5 9 5 15 7 8 4h8l6 1 16-4 10-3 6-4 3-5 2-13 7-8 5-5 8-3 1-9 2 3v20l-3 16h-1v-7l2-11-6 7h-2l-2 10-4 13-3 6-7 6-15 8-12 1-19-1-22-7-12-6-11-9v-2l-4-2-7-6-10-10-13-10-7-5v-2h-2v-2l-3-1-6-7-2-1v-2l-5-2-11-8-5-6-2-1v-2h-2l-7-8-16-15-5-7-5-5-5-6-10-15v-2h-2l-6-10-4-7-9-15-7-14-7-10-6-7-9-6-15-11-9-6v-2h-3v-2l-5-2-13-7-5-3-12-7-13-6-19-9-9-4-13-5-8-5-18-2-3-2h2v-2z" fill="#C8A0C6"/>
<path transform="translate(928,590)" d="m0 0h23l16 4 16 8 7 7 4 8v15l-4 6-6 5-5 2h-11l-4-2v-21l-4-11-6-7-10-4h-18l-12 4-8 7-6 12-1 6v11l3 9 6 7 14 8 26 10 16 6 15 8 7 6 7 11 4 12 1 14-2 11-4 9-6 8-8 8-11 7-18 6-7 1h-28l-18-3-15-5-11-6-7-8-2-5v-12l4-6 7-5 10-3 4 15 6 12 4 5 10 7 12 4 6 1h13l12-3 10-6 5-6 4-11v-17l-4-8-9-8-16-9-36-15-16-9-9-8-6-10-3-11v-15l3-11 4-8 9-10 7-6 10-5 13-4z" fill="#010101"/>
<path transform="translate(297,575)" d="m0 0 2 2-3 14-5 14-10 30-1 10-1 16v5l4 2 1 3 8-5h6l12-9 2-1v2l7-2 8-5 2 3 4-2-1 14-5 5-4 17-4 8-3 15-2 6v9l-1 3-2 1-2 12-1 5-3 4-2 7v7l-4 9-3 21-5 8-3 3 1 6v3l-3 3-7 1v3l-3 1v4l-3 3-2 14 1 10 8 25 6 13 3 2 6 12 3 4 2 4v3h2l4 9v2l5 1v3l-5 1-8-9v-2h-2l-4-6-13-18-8-14-7-14-6-22-2-15-1-19-1-34-1-22v-19l1-16 2-9 4-23 5-19 1-4h2l1-8 7-23 11-33 4-10 3-9z" fill="#E1BBC4"/>
<path transform="translate(379,981)" d="m0 0h7l-2 1-1 7 14 3 17 2 29 2h43l44 1 12 1 35 1 38 2h19l6 1h18l10 1 36 1 33 2 65 1 7 1h20l13 2 2 5 17-4 22-9h4v3l-25 14-22 12-15 7h-2v-2l-21 6-12 1-5-3-7-3-14-1h-10l-52-4-33-4-33-3-40-4-15-2-30-3-21-1-45-6-41-3-39-4-22-4-9-7-3-3v-4z" fill="#FCF6DA"/>
<path transform="translate(1008,950)" d="m0 0h6l5 3 10 5 15 6 11 7 2 2 6 1 4 3-2 2 4 2-8 2 4 4-2 1 3 1v3l2 2-2 1 2 2-3 1 2 3-3 1v4l2 2h-3l4 3-1 1 2 2v1h2v2l3 1-1 1-7 1 3 2-8 2-9 1 2 2-22 2h-10l-11-2-16-3-5 1h-11l-13-2-9-1-14-4-1-1h-8l-6-3-12-1-2-2-9-1 1-5v-3l1-5-2-1 16-10 22-15 7-3 9-1 2 1v-2l7-1 1-3 4-1 1-3h4v-4h11l12-3z" fill="#EDDCD1"/>
<path transform="translate(528,532)" d="m0 0v3l8-1-3 4 3 1 1-3 3-2 9 1 3-1h23l5-1-1 2h14l-1 2 6 1-1 3h-2l-1 4-7 2h-4v2l-7 4-4 1-4 7-9 3-3 5-8 2-7 3-12 3-1 3-13 5-9 3-10 4-8 2-2 4-19 6-7 2-2 5-10 5-1 4-19 9-10 3-12 6h-10-3v-9l-3 2 2-6 12-22 15-25 7-11 5 1 6-4 16-6 14-5h5l2 2 16-7 6-2 4-3 6-1 6-4 12-3z" fill="#D3B6A4"/>
<path transform="translate(805,237)" d="m0 0h7l3 1v2l3 1 1 2-23 9-4-1 4-3-2-1h-28l-28 3-17 3-24 7-13 2-12 3-14 3-17 6-20 9-19 8-11 3-9 5-10 4-13 6-15 8-15 9-18 11-5 4-5 2-1 3h-2v2l-10 8-7 6-9 5-3 1v2l-5 2-1 3h-2l-2 4-6 5h-3v2l-4 3h-2l-2 4-9 10-3 3h-2l-2 4h-2l-2 4-8 7-6 8h-2l-2 4-5 7h-2l-2 4-7 11-8 10-1 2h-2l-2 4-6 9-3 6-6 7-2 4h-2l-1 5-5 8-4 8-4 9v5l-3 7-5 12-3 6-1 1-1 8 5-1 9-5 16-9 10-5 11 1 4 1 8-1 1 3 5-1-2 10-7 3v5l-6 2-2 4-6 2-3 3-10 6-9 5h-2l-1 4-15 8-6 4-2 4-10 5-8 5-3 3-9 5-4-1-1 3-2 2-1 4-4 4-2 4-1-3 3-10 4-10 10-24 7-18 4-10 15-35 5-9h2l1-4 10-20 7-11 2-4h2l2-5 10-14 3-2 1 4 1-4-1-2 4 1 2-5 7-9h2l1-4 6-8h2l2-5 6-7h2v-2h2l2-4 20-20 5-6h2l2-4 3-1 1-3h2v-2l5-4h2l1-3 5-2 1-3 6-5 1-2 7-4h3l1-2 6-4 8-8 1-2 5-1v-2l4-1 2-4 5-3h2l1-3 10-5h2v-2l11-6 14-9 15-6 17-9 14-6 20-8 36-16 11-3 7-1 2 1v-2l16-2 4-2 14-4 4-1 21-6h12l4-1 7-1 29-1 5-1 8-1z" fill="#C8A0C6"/>
<path transform="translate(857,771)" d="m0 0h5l2 5 6 2 9 14 4 8v9l2 1-2 16h3l-1 12 4 1 1 7-1 5 5 17v3h2l1 9v5h2l1 4v4l3 1-2 4h-2l2 4-2 1-2 7 1 3 8 2h19l7-2h4l1 3 2 2-2 4 2 4-1 2 6 1 7 3 4 5 5 3 13-1 5-3 3 1v3l-12 9-7 5-5-1-3 2h-3l-1 2-4 1h-9l-7-6-3-2-6-2-8-3-8-2-15 2h-7l-6 2h-7l-11 3-5-1-6-4v-3h2l-3-5-1-2 7-4v-3h3l1-4 3-3 9-2 1-4-3-3v-2l-4-5v-2l-1-3 1-1-1-11 2-2-1-7-1-3 1-6-4-1-3-6v-7l-1-6 1-5h-2l1-9 2-3h-3l-1-4-1-7-1-26-3-4 2-8h2l2-6-3-1 5-1-1-3z" fill="#E4D696"/>
<path transform="translate(756,588)" d="m0 0 4 1 4 5 2 1h8l12 3 8 7 7 8 4 3v2h2l1 4 5 2 9 15 7 14 3 9 3 7 4 13 3 8 2 11v8l2 4 2 19 1 7v2l5 1 3 9 2 7 2 5-2 1-6-2-1 6h-13l-14-2-3-2-8-20-17-41-19-46-15-37-4-10v-7l1-1z" fill="#E4D696"/>
<path transform="translate(369,985)" d="m0 0 4 1h-2l6 7 6 4 22 4 52 5 28 2 45 6 32 2 26 3 39 4 28 3 31 3 26 3 46 3h12l12 2 5 4 9 1 21-5 6-1v3l-21 10-32 13-13-1h-21l-15-3-33-4-24-3-32-5-35-6-32-5-125-21-37-5-15-3-9-2-2 2-11-16-1-3z" fill="#FDF9F0"/>
<path transform="translate(439,537)" d="m0 0h4l-2 5-11 15-10 16-17 28-11 20h-3l-3 3h-2v3h-2l-2 4-6 7-7 4h-7l-6 3-7 2-4 2h-3l-7 4-5 2-2-3-9 6h-5-2l-12 9h-6l-8 5-1-4-5-2v-12l3-9 5-9 3-5 1-2h2l1-5 4 2 9-5 2-1-1-2 14-7 7-4 2-4 18-10 2-1 1-3 12-7 9-5h2l1-3 7-3 3-3 3-1v-5l7-4 4-4 7-3 3-3 7-1 3-3 9-2 8-1v-2h3z" fill="#D5AEAE"/>
<path transform="translate(829,933)" d="m0 0h2v2l8-1 1 3h5l1-2 4 4v3l-2 2 6 4-4 2-1 2-11 2-4 2-7 2-5 2-5 1v1l-20 2v1l-14 2v1l-28 2h-15l-1 2h-36l-16 1-47 1-5 1-11-1h-43l-2-1-1 2-1-1h-64l-1-2 6-2-1-2 6-2 9-1 8-3h8l5-2 28-2 7-1 37-2 11-2 36-3 23-1 47-5 23-3 19-2h8l21-4 11-1z" fill="#F1EEA5"/>
<path transform="translate(919,781)" d="m0 0h29l-5 4-2 1-1 5 4 3 7 2 5 4 3 6 4 13 6 10h3l8 16 4 6v2l3 1 3 4 5 2 4 5 6 5 3 1v2l4 1 1 3h2l1-2 7 9 1 5 8-1 4-1v-2h4l-1 4-10 10-8 7-15 13-8 6-2-2-10 1-8-7-1-5 1-5-5-4-6-6-1-2-4-2v-3l-8-10-4-7-2 2-6-16-3 2-4-8-5-11-2-1-4-10-3-6-1-8-4-16h-2v-2h-2l-6-11 6-5h13l-6-1z" fill="#D3B5A5"/>
<path transform="translate(988,758)" d="m0 0 2 1v2h-2v3h2v2l4 1 1 3 2 1 2 6 1 4h2l10 21 5 5 8 10v2l4 2 5 5 10 16 7 13 3 3 1 4 4 1v2h2v3h-2v2l-8 7-10 10-1-2h-4v2h-3l-1 2-8 1-3-7-5-7-3 1-2-3-3-1v-2l-4-1-8-7-2-3-5-2-6-7-5-7-7-15-2 2-6-11-4-9-3-9-5-5-7-2-5-5 2-5 5-3-4-2 14-3 12-5 8-5 5-2z" fill="#C8AA9C"/>
<path transform="translate(975,210)" d="m0 0h68l30 5 24 6 27 10 16 8 16 9 16 11 13 11 10 9 7 8 4 9 1 2-4-2-13-10-12-8-16-10-6-2-14-2h-20l-5 2-7 1-3 4-15 2-9-4-7-1-3-3v-2l-9-2-3-3v-2l-5-1-26-14-17-9-11-5-2-5-4-2-8-6v-2l-13-1z" fill="#FBFAFB"/>
<path transform="translate(757,970)" d="m0 0h16l2 1 17 1h17l1 3 18-1h10l4 2h7l1 3-5 1v1l-6 1v1l-6 2 1 2-7 1v1l-13 2-11 2v1l-11 2h-20v2h-71l-31-1v-2l-17 1-5 1h-12l-15-1-1-1-23-1-2-1h-8l-3-1-18-1v-1l-32-3v-1l-18-1 1-2 16-1 9-1 17-1 64-5 12-1 5-1 47-1 22-1h31z" fill="#F8F3C3"/>
<path transform="translate(661,560)" d="m0 0 10 5 5 3 1 4 6-1 6-8 2 2-1 7-10 25-1-2-5 3-1 2h-2l-1 4-5 2-16-7-6-1-3-1h-10l-36 6-6 2-3 5-5 2-6 1-1 2-8-1-1 3-9 2-1 3-19 4v-2l-16 4v-2l-6 1 1-3-5 1h-3l1-3-5 2-1-2-4 1v-2l-6 3h-3l-4-1 6-3h2l2-4 8-2 1-4 12-4 5-3 6-3 9-4 16-5 3-5 10-3 4-8 10-1 1-3 14-2 30-5 9-2 27-1z" fill="#DECA97"/>
<path transform="translate(345,795)" d="m0 0 5 5 2 4 3 14 1 3 2 9 4 2 2 19 2 2 3 18v6h2l1 8 5-1v5h2l1 10 4 4v2h2l1 9h2l3 8 1 1 2 14 6 9-3 1 3 3v4h3v2l9 2 6 2 2 4v3l2 2-7-1-37-10-12-5-9-6-7-7-6-10-5-15-9-34-1-13v-27l2-31h1v21l3-8 4-21 4-6z" fill="#E1C7A9"/>
<path transform="translate(894,777)" d="m0 0 32 5-1 2h-15l-2 4v3l4 6v2h2v2h2l2 4 3 12 2 10 5 10v4l3 1 5 11 3 7 3-3 4 9 3 7 2-2 6 12 7 8-1 2 5 3 5 5v2l4 2 2 3-1 5 1 4 7 6 11-1v4l-10 9-6 4-1-2-5 2-2 1-13 1-8-6-2-3-12-4-1-4-1-3 1-4-2-2 1-2-9 2-7 1h-16l-7-3-1-5 1-3h2l-1-3 2-1-1-3 4-3h2l2-4 5 3 3-8-1-4-3-10 1-4-2-3-2-1-3-13-2-3v-12l-5-18v-7l-3-10-7-12v-7l6-3z" fill="#DECA97"/>
<path transform="translate(882,369)" d="m0 0h2v2l5-1h3l1 4v2h2l1-3h3l3 7-1 5-3 1v2h-2l-2 4-5 4-9 2h-4l-2-2-14 1v-2l-9-1-6 1h-23l-7-2h-12l-4 1h-11l-11 1-17 1-4 1h-12l-19 2-22 1-13 1h-4v2l-20 3-36 8-25 6-9 2v2l-22 7-26 7-12 4-2 1v-2h-4l-13 13v-3l14-14 5-3 6-6 8-3 8-4 3-1v-2l17-6 27-6 4-3 11-1 6-2 16-2 2-1h13v-2l4-2 12-2 9-2 12-2 24-1 10-2 5-2h12l27-3h11l25-2 1 1 20-1 8-2 3 1 3-2h5l2 2 5-2h3v2l12-5 5-1z" fill="#AF7BA4"/>
<path transform="translate(920,411)" d="m0 0h3l1 5 2-3 3 1 3 7 1-1h5l4 5 2 1-1-3h2v2l2 1 2 4v3h2l1-1h4l3 5 5 5 2 4 5 8 5 7v2h2v3h2l7 10 1 3 4 2 8 11-2 2v3l3 5 2 2-3 3v2h2l1 3 5 4-2 4v5l3 5-2 6-4-4-3 9-4 11-1 11-3-3v15l-4-4-2-4-4-3-2-5-3-3-1-10-2-4-1-19-6-10-2-9-1-9-5-9-3-7-3-8-3-3-1-4-7-3h-2l-5-5-7-2-5-6h-2l-2-2-3 1-2-3-9-3-1-2-8-1-3-4v-2l6-1-4-10 7-2 5-1v-1h5l2-4z" fill="#BA88A7"/>
<path transform="translate(1027,567)" d="m0 0 3 2-2 7-1 3 2 1 2 2-1 4-1 1-1 8h5l1 2-4 13h3v12l-1 3 4 2 1 10v9l3 1 2 9 3 20 2 6 2 9 4 12 4 11 2 7 6 12v2h2l4 9 2 6 6 8 5 10v4l-1 2 3 5 5 8 7 10 2 1 2-4 3 8-1 9 5 1 1-3 1 3-12 14-1-2-5-1-3-9-3-10-7-10-4-6-5-7v-2h-3v-2h-2l-7-11-6-12-5-8-3-6-12-20-4-15-3-7-3-11-4-16-7-25v-11l-2-11v-17l4-1 1-8 2-6 4-17 4-4z" fill="#AF7BA4"/>
<path transform="translate(562,567)" d="m0 0 2 1v1h5v3l2-1h8l-1 3-10 2-4 8-10 2-2 5-6 3-13 4-7 3-10 5-10 4-3 1-1 3-9 4-4 4-5 2-4 4-7 4-6 1v2l-8 2-1 4-7 2-2 4-9 5-4 3-6 1-3 1v2l-16 5-7 1-8 6-7 4-7 3-4 2-1-1v-7l2-10 1-7h-2l2-6 9-18 5-3v9l2-2v3l10-1 14-7 10-3 17-8v-4l10-4 3-6 23-7 4-2 3-3 15-5 5-3 18-6 3-3 16-5 7-3z" fill="#E2C8A9"/>
<path transform="translate(1396,929)" d="m0 0h1l-1 8-5 11-7 14-6 8-5 6h-2l-2 4-12 10-10 6-8 3-22 12-18 6-20 7-6 1v1h-7-3l-26 3-5-1-26-1-12-1 3 2-9-1 1-3-8 1-8-1-15-2-20-8-16-8-12-5-13-7-21-13-7-3v-2l9 2 5-1 6 3 5 1h10l6 2 5 1 4 2h7l6 3h9l3 3 7 1h6l8 3 14 2 15 4 3 2 11 2 9 1 7 2 13 1h16l8-1h10l5-2 15-2 19-5 11-3 10-3 10-5 6-2 11-6 5-3 6-2 2-4 5-5 7-8 7-15z" fill="#DEC9DD"/>
<path transform="translate(626,475)" d="m0 0v3l-14 3-3 1v3l-13 3-3 4-9 1-2 5-7 2h-4l-1 3h-2v2l-7 2v2l-13 2v2l-8 3 1 2-6 3-3 5-1 4-9 3h-3v2h-2l-1 3-8 3-5 3-5 1-3 3-9 3-13 5-1-2-7 1-20 7-9 4-5 3-4-2 2-5 14-20 12-17 5-4 2-2h3l2-2 2 1 1-3 8-4 29-10 2-1h7v-2l16-4 3-2 13-3 12-4 15-3h7l19-4 15-1z" fill="#C79EA7"/>
<path transform="translate(740,489)" d="m0 0 33 1 13 1 10 2 6 2 15 3 14 4 14 7 13 11 5 5 6 5 3 4v2l4 2 7 9 2-2 6 9 5 10v17l-1 9h-3l2 5 9-2 2 1v2l-9 4-4 2h-3v-2l-4-1v-7l1-4-1-13-2-4-2-8-10-13-6-5-6-7v-2h-2v-2l-4-2-10-9-11-7-10-5-13-5-17-4-13-2-12-1h-22l-7-1-28 4-21 1-14 2-18 1-15 5-10 2-23 2-31 5-30 7-17 5-6 3-9 3 1-3h2v-2l9-3 1-2h2l2-6 6-5 1-2 8-2v-2l26-6v2l16-4h11l16-3 7-1 4 1 22-3 17-3 30-4h41z" fill="#C9AB9C"/>
<path transform="translate(742,553)" d="m0 0 7 4 8-1 4-1h7l8 3 12 3 7 3 1 2 9 2 8 6 6 4v2l4 2 8 10 8 11 4 12 6 15 6 17 3 6 3 2 2 7 3 3v2h2v2l5 2-2 2h-3l2 10 3 1 2 7 1 13 1 8-2 7 5 4 2 4-1 2-8 2v-2h-7l-5-5-2-10-1-6v-5l-2-2-1-9-6-18-3-10-6-18-12-25-3-7-9-10-2-4h-2l-5-5-8-5v-2l-5-1-6-5-2-1v-2l-18-4-9 3-8-6-2-1 3 7-1 3-3-4-2 2-4-10v-5l2-1 2 4-4-12z" fill="#DECA97"/>
<path transform="translate(483,483)" d="m0 0 1 3-11 13-11 14-10 13-8 11h-5v2h-3v2l-5 2h-9l-1 2h-4l-1 3-9 1-1 3-8 4h-2l1-6-5 1v-4l-11 2-12-4-6 1v-3l11-6v-2l9-4 2-2h-13l-10 3-5-1 4-3 9-4-1-2 19-9 19-10 9-3 6-3 7-2 5-2 10-2 5-2h8l7-2h13l3-3z" fill="#B88AA2"/>
<path transform="translate(905,942)" d="m0 0 7 1 2 2 7 2 9 4 7 6h9l10-4 3-1 2 1v2l-19 14-10 7-5-1-18 7h-7l-2-2-9-1-3-1h-31l-3-1h-13l-3-2h-28l-2-2h-23l-10-1-2-1h-33v-1l15-1 19-1 8-1v-1l14-2v-1l20-2v-1l10-2 3-2 8-2v-1l12-1 1-3h9l11-3h7l9-2 14-1z" fill="#EEE4B9"/>
<path transform="translate(903,997)" d="m0 0h3v5l-1 5-1 3h9l2 2 12 1 7 3h7l15 5 19 2 7 1h9l3 2 5 4-5 1 3 2-4 1 3 2-2 1h-8l2 2-12 1v1l-15 1v1l-21 1-1 2-14-1h-37l-20-1-1-1-26-1 1-4 7-8v-2l22-12 24-14z" fill="#FCF5DA"/>
<path transform="translate(1088,924)" d="m0 0 14 4 11 4 5 1 5 3 8 2 2-1 4 2 22 5 6 3 10 2v2l5 1-1 2 9 3 10 2 4 2 27 3 4 2 9 2 7 2 15 3 7-1 2-1h8 4l3 1 11-3 8 1-3 2-13 4-24 3-9 1 5 1v1h-17l-26-2h-16l-15-2-4-1-11 1-15-5h-13l-22-9-17-9-1-2-3-2v-2l-7-4v-2l-2-1-1-3-3-3-2-3v-2l-5-5z" fill="#D6B3CF"/>
<path transform="translate(901,220)" d="m0 0 4 1-3 1 14 7 11 9 12 7 15 10 13 9 12 8 8 6v2l5 1 20 15v2l5 2 10 9 3 2v2l4 2 3 2v2l5 2 5 5 13 12 8 7 11 11 2 1v2h2v2l5 2 7 6v2l4 2 10 10 7 8 4 5 9 6 4 3v2l5 2 8 4 9 2h7l18-4 9-5 10-7 6-2 1-3-1-2 7-1 20 6 9 5 4 4-2 1v3l-6-2-3-2-17-2-3 4-16 8-11 6-10 5-8 3-1 2-12 1-9-3-13-8-7-5v-2h-2v-2l-4-2-8-8v-2h-2v-2h-2v-2h-2l-9-11-10-11-8-6v-2l-4-2-8-8-2-1v-2l-4-2-8-9-6-5-5-5-4-3v-2l-4-2-11-9v-2h-2v-2l-3-1v-2l-4-2-12-9-16-14-12-8-7-5v-2l-5-2-13-9-11-7-16-10-8-4-10-9-10-4h-6l3-3z" fill="#DDC8DC"/>
<path transform="translate(704,573)" d="m0 0 3 2 18 44 15 38 2 5v3h-75l3-9 17-42 14-34z" fill="#EFE498"/>
<path transform="translate(405,869)" d="m0 0 2 3v2h2l1 5 1 2h3l6 12-1 6 4 2v15h5v6l7 16v4l5 3 4 9-2 4h-2v5l6-1 1 4-2 4 2 2-2 2-2 3-7 3h-10l-9-1-1-4 2-2-1-2 6-1v-2l-3-1-1-4-2-3-13-4v-2h-3l-2-5-2-3 3-1-6-8-2-14-2-2-1-7h-2l-2-6 1-3h-2l-2-4-3-2-1-6 6-11 2-2h5v-2l4-2 1 1v-5h2l1-2 3 2-2 9 4-3z" fill="#EAD3A7"/>
<path transform="translate(1014,915)" d="m0 0 16 1 7 1 3 2 10 1h12l7 2 9 2 4 1 5 4 4 4 2 5 3 5 1 2 6 3 3 3 1 3-4 1-6-1-7 1-2-1h-7l-4-1h-9l-12-2-2-1-4 1-6-2h-20l-2 1-22 2-12 3-11-1v4l-4 1-3 3-5 4h-5v2l-12 1h-3l18-14 16-12 10-8 21-18z" fill="#E1BBC4"/>
<path transform="translate(570,553)" d="m0 0 2 1-4 7-9 3-3 5-8 2-7 3-12 3-1 3-13 5-9 3-10 4-8 2-2 4-19 6-7 2-2 5-10 5-1 4-19 9-10 3-12 6h-10-3v-9l-3 2 2-6 12-22 5-5 1 3-1 5 9-2 7-4 8-1 4-3 9-2 3 1 12-5 1-1-1-2 19-7 7-1v-4l21-7 8-2 7-1 19-6h6l3-2 8-1z" fill="#D8BFA8"/>
<path transform="translate(896,912)" d="m0 0 10 3h19l7-2h4l1 3 2 2-2 4 2 4-1 2 6 1 7 3 4 5 5 3 13-1 5-3 3 1v3l-12 9-7 5-5-1-3 2h-3l-1 2-4 1h-9l-7-6-3-2-6-2-8-3-8-2-15 2h-7l-6 2h-7l-11 3-5-1-6-4v-3h2l-3-5-1-2 7-4v-3h3l1-4 3-3 9-2 3-2 8-1 2-1 12-2z" fill="#EFDCA6"/>
<path transform="translate(341,527)" d="m0 0 1 3-2 6-4 11-5 10-1 1-1 8 5-1 9-5 16-9 10-5 11 1 4 1 8-1 1 3 5-1-2 10-7 3v5l-6 2-2 4-6 2-3 3-10 6-9 5h-2l-1 4-15 8-6 4-2 4-10 5-8 5-3 3-9 5-3-1-1-3 4-10 5-13 2-2 4-10 10-20 11-19 6-12 5-9z" fill="#C597B5"/>
<path transform="translate(988,758)" d="m0 0 2 1v2h-2v3h2v2l4 1 1 3 2 1 2 6 1 4h2l10 21 5 5 8 10v2l4 2 5 5 10 16 7 13 3 3 1 4 4 1v2h2v3h-2v2l-8 7-10 10-1-2h-4v2h-3l-1 2-8 1-3-7-6-8 1-6-1-5 1-5-3-5-1-9-5-10-4-6v-5l-6-11v-7l-7-15-6-10-5-3-2-5v-4l-2-1 6-3z" fill="#C79EA6"/>
<path transform="translate(676,595)" d="m0 0h3l-1 7-6 15-1-4-2-1-2 5-7 11-6 6-3-1 1-2-5-1-1 4-6-1-1-4-5-2h-16l-5-2-2 1h-7l-1 5-16 3-6-1-5-1-1 5-12 2-8-3-2-3-3-1v-4h-7l1-5 10-1 1-4 9-2 1-2h6l2 1 1-3 10-2 4-6 10-3 32-5h11l6 2 10 3 9 4 4-2 1-3h2l2-4z" fill="#E4D696"/>
<path transform="translate(253,730)" d="m0 0h1v37l1 16 1 39 1 14 3 16 6 20 8 16 10 16 10 13 2 5h2l8 10 5 1-1 5-5 6-1-3-7 4h-7l-1-3h-2l-2-5-3-1-2-5-3-1-10-15-12-24-5-12-6-23-2-25v-17l3-28 1-5 2-21z" fill="#EBDEEB"/>
<path transform="translate(502,442)" d="m0 0 10 2v2l4 2-2 4-22 24-7 9-2-1-4 2-2 2h-13l-9 2h-7l-7 3-10 2-3 2-9 2-5 3-9 3-17 9-11 2h-3v-2l-4 1 1-6 6-2 1-2 18-8-1-2 10-6 13-6 6-2v-2l14-6 1-3 14-5 1-1-3-2 10-3 2-4 10-3v-2h9v-3l7-2h8z" fill="#B281A3"/>
<path transform="translate(1023,948)" d="m0 0h21l7 2 4-1 6 2 7 1h11l2 1h8l1 1 11-1 7 2 16 8 24 10 2 1v3l7 2v2l2 1v2l4 1 7 2-4 2v3l-4 1 3 2-1 2-7-3h-9l-5-2-2-2h-9l-6-3h-7l-4-2-5-1-7-2h-9l-8-2-4-2-6 1-7-2-6-2-7-2-10-7-11-5-5-1-8-5-7-3-1-2 9-1z" fill="#DFC1CF"/>
<path transform="translate(956,967)" d="m0 0 3 1v3h-2l1 4 5 2-3 2 5 2-1 3 5 2v2l2 1-2 1 7 5-2 2 4 4 3 4v2l5 1-3 2 12 5 3 3 11 5 12 4-4 1-16-3-7-1-5 1h-11l-13-2-9-1-14-4-1-1h-8l-6-3-12-1-2-2-9-1 1-5v-3l1-5-2-1 16-10 22-15 7-3z" fill="#F4E6CC"/>
<path transform="translate(1269,512)" d="m0 0 11 1 2-1h13l8 4 4 4 5 3 5 6 3 3 7 4 5 5 3 5v2h2v3h2l8 15 5 10 4 4 1 5h2l6 17 8 16 5 14 3 6 2 6 2 10 6 18 3 12 2 6 4 16 3 20v39l-1 8v9l-1 17-1 16-2 19-3 20-4 9-7 4-1 2-15 3-17 10-4-1-2-2 8-4 5-4 15-10 7-5 4-6 5-5 5-10 2-10 1-6-1-3 1-4 2-39v-33l-3-27-2-4-1-7-7-22-2-7v-5h-2l-4-18-8-21-8-16-4-5-5-10-3-10-8-15-10-11-3-3-6-8-4-6-9-7-10-5v-2l-8-6-8-3h-12l-5 1-1-4z" fill="#B691B8"/>
<path transform="translate(926,599)" d="m0 0h18l6 2v2l-10 1 1 5 2 3 2 4 2 5 2 18-1 24 1 2-1 3 2 5h-7l-16-6-16-8-8-7-4-8-1-4v-11l2-9 6-10 8-7z" fill="#C4A39B"/>
<path transform="translate(774,250)" d="m0 0h6l6 2h5v2l-17 8-4-1v-2h-8l-12 3-13 3-14 3-19 3-8 2-21 5-5 2-16 4-12 5-11 4-17 6-12 6-11 3-10 6-10 3-15 8-12 7-8 4-17 10-4 5-10 7-27 18-3 1v2l-8 6h-2l-2 4-4 3-7 6h-2l-2 4-5 5-5 4h-2l-2 4-6 5h-2l-1 2-6 7-5 2 3-5 5-6h2l2-4 9-8h2l2-4 9-8 1-2h2v-2l5-5 14-12 4-3h2v-2l7-5h2l1-3 12-9 6-3 1-2h2v-2l9-6 13-9 7-2v-2l12-7 13-6h2v-2l13-6 9-4 15-6 27-10 9-4 6-2 14-6 19-5 12-2 16-4 21-5 10-2 13-2 18-3z" fill="#B691B8"/>
<path transform="translate(1105,821)" d="m0 0h5l5 5 14 6 5 3-2 3 1 1 3 2 2-2 2 5 5 4 5 3-2 2h-5l-8 4 4 2-1 2 3 2-9 4-11 3v2l4 2-3 1 1 2-10 2-9-1h-6l-5-1-4 1-1-1h-12l-3-3h-7l-5-2-4 2 4-5 16-16 7-8 16-17z" fill="#BA88A8"/>
<path transform="translate(439,537)" d="m0 0h4l-2 5-11 15-10 16-8 13-1-3-5 2-1 3h-2v2l-5 3-11 2h-6l-8 2-6 4-9 3-3 2-9 3-11 4-12 8-5 1-5 3-5 2-6 4-7 2h-4v-2l-2-1 3-1 1-5 4 2 9-5 2-1-1-2 14-7 7-4 2-4 18-10 2-1 1-3 12-7 9-5h2l1-3 7-3 3-3 3-1v-5l7-4 4-4 7-3 3-3 7-1 3-3 9-2 8-1v-2h3z" fill="#CDA5AB"/>
<path transform="translate(935,702)" d="m0 0 6 2 14 8 10 9 4 8v17l-4 11-7 8-12 6-8 1v-2l-5-1-5-4-2-7-1-4-2-3-1-9-4-18-1-6 1-13 6-2 5 1 2-1 4 1z" fill="#CBB09B"/>
<path transform="translate(1e3 745)" d="m0 0h2l1 2 5 3 4 7 2 6 6 11 6 12 2 5 3 1 3 6 3 3 5 9 5 7v2h2l4 5 5 9 7 11 1 5 7 1 3-2-1 4-14 14-3-1v-2l-5 1-2-7-4-5-9-17-6-9v-2l-4-2-5-5-8-10-6-7-8-16v-3h-2l-3-5v-5l-3-1v-3h-5l1-3h-2v-3h2l-2-2-8 8-2-1 20-20z" fill="#BF92A3"/>
<path transform="translate(1061,871)" d="m0 0 7 2h5l5 5-1 2 2 1-2 2v2h3v3l6 2 2 4 5 5 1 3 3 3-1 4-1 3-2 1 2 2-4 2-3 3 2 2-3 1 1 2-6 1-7-2-9-2-9-1h-12l-7-2-4-1-9-1-11-1h-3l15-13 17-16 13-13z" fill="#D6AFAF"/>
<path transform="translate(930,842)" d="m0 0 2 2 4 9 3 7 3-3 4 9 3 7 2-2 6 12 7 8-1 2 5 3 5 5v2l4 2 2 3-1 5 1 4 7 6 11-1v4l-10 9-6 4-1-2-5 2-2 1-13 1-8-6-2-3-12-4-1-4-1-3 1-4-2-2 1-3 5-1-3-6-3-3-1-5-1-4 5-2-4-9v-5l2-3v-14l-5-9z" fill="#E2C8AA"/>
<path transform="translate(768,617)" d="m0 0 3 1 7 11 5 5 3 5 8 4-1 6 5 2 5 9v5l2 1 6 9 4 9 2 4 1 8-2 4 5 3-1 3-4-1-1 3 3 6 2 14 3 6 3 13 4 10 2 3 8 4 5 2v1h-14l-8-2-5-11-16-39-31-75v-14z" fill="#E9D996"/>
<path transform="translate(853,778)" d="m0 0 1 3-2 3h-2l-1 8 3 5 1 30 2 4-1 2h3l-3 12h2l1 18 3 6 3 1v7l2 5-2 10 1 7-1 2 2 4v2l4 4v2l2 4-1 3-13 2-1-1-7-1 2-3-4-5h3l-5-8 1-4v-4l1-13-4-13-2-10 1-2h-2v-14l1-7-1-10-2-4 1-4v-13l1-6-3-5-6-5 1-3 4-1v-2l10-2 7-2z" fill="#ECDE96"/>
<path transform="translate(919,781)" d="m0 0h29l-5 4-2 1-1 5 2 2-3 3 2 3-2 4 4 10 2 2 1 6 6 15v12l2 8 1 10 5 10-1 4h-2v2h-2l-5-9-2 2-6-16-3 2-4-8-5-11-2-1-4-10-3-6-1-8-4-16h-2v-2h-2l-6-11 6-5h13l-6-1z" fill="#D5BC95"/>
<path transform="translate(539,514)" d="m0 0 2 4-6 3-3 5-1 4-9 3h-3v2h-2l-1 3-8 3-5 3-5 1-3 3-9 3-13 5-1-2-7 1-20 7-9 4-5 3-4-2 2-5 12-17 8-6 12-6 11-5 6-1v2l8-3 9-1 10-3 13-3 7-2 8-1z" fill="#CDA5AA"/>
<path transform="translate(370,658)" d="m0 0h2l-1 7-10 23-14 41-11 44-5 31-2 22h-2v5h-1l-3-18v-18l-1-5v-12l-2-4-1-9 4-20h-3l3-8 2-1 3-11 7-10 4-7 6-8 8-15 7-10 9-16z" fill="#E1C7AA"/>
<path transform="translate(275,836)" d="m0 0h3v6l5 1 1 5 6 2 4 9 1 4 5 1 2 2 2 7 5 1v2l4 1 2-2 4 1 1 2v14l-5 25-4 5-4-2-9-14-6-8-4-4-3-2-7-16-7-22-1-10z" fill="#D6B9AD"/>
<path transform="translate(481,552)" d="m0 0 3 1-10 5-3 1-2 5-14 5v3l-2 1 1 3 9-3 1 3-1 3 13-5h9l2 2v3l-24 8-1 1 1 2-14 6-4-1-10 3-1 2-9 1-7 4-9 1-1-3v-3-3l9-16 9-14 5 1 6-4 16-6 14-5h5l2 2z" fill="#D5B8AC"/>
<path transform="translate(413,972)" d="m0 0h7l-4 5 10 2 30-1 21-2 9-1 27-2h116l1 2-8 1-74 6h-10l-5 1-43 3-35 2h-26l-18-2-12-2-1-7 4-2z" fill="#EEE4B8"/>
<path transform="translate(1081,876)" d="m0 0h7l2 1 7-1 1 1h11l7 1 10 2 13 5 2 2 6 2 3 5 6 2-1 2 8 3-2 1v2l4 1 2 4-14-1-2-1h-13l-3-1h-10l-6-2-4 1-4-1-2 1h-12l-4-3-1-3-10-10-2-1v-3h-3l-1-3 2-5z" fill="#C597B5"/>
<path transform="translate(495,621)" d="m0 0h2v2l6-2v2l4-1 1 3 3-2 4 1v2h4l-1 3-6 2-1 3-14 7-3 5-6 3-3 2-2 5h-6v3l-20 12-4 2v-2l-3-1 3-2-1-1-5 3-3-1-3-14v-5l6-3h2l2-5 1-1h6l1-4 8-2v-2l9-4 6-3 1-2 8-2h2z" fill="#EAD3A6"/>
<path transform="translate(950,602)" d="m0 0 5 2 6 7 4 11v21l3 1v2l4 1 3 2v8l1 5-1 6 1 3-1 4 1 4 6 7 3 3-3 1-16-8-15-6-6-2v-2h4l-2-5 1-3-1-5 1-20-2-18-3-6-2-5-3-3 2-4z" fill="#BF92A3"/>
<path transform="translate(1014,915)" d="m0 0 16 1 7 1 3 2 5 1-2 3v2l-5 2-1 3-6 4v2l-9 4-1 3-3 2-2 5-20 3-8 2-11-1v4l-4 1-3 3-5 4h-5v2l-12 1h-3l18-14 16-12 10-8 21-18z" fill="#DEBEAF"/>
<path transform="translate(952,843)" d="m0 0 2 1 6 12 7 10 7 12 5 3 7 6 2 1v2l5 2 3 3 4 1 8 8 9 2 1 3-11 9-8 7-3-2-10 1-8-7-1-5 1-5-5-4-6-6-1-2-4-2v-3l-6-8 3-3-1-5-4-9-2-15-1-6z" fill="#D7BEA8"/>
<path transform="translate(483,483)" d="m0 0 1 3-11 13-5 1-6 3-2-1 1-3-2 1-2 2-10 2-2 3-11 3v3l-10 1-11 5-7 2-18 8h-16l-10 3-5-1 4-3 9-4-1-2 19-9 19-10 9-3 6-3 7-2 5-2 10-2 5-2h8l7-2h13l3-3z" fill="#BA88A7"/>
<path transform="translate(964,774)" d="m0 0h5l-2 1-2 4-3 4v4l9 10 8 19 8 16 5 9 5 6v2l4 2 10 13 4 8v5h-2l-2-3-3-1v-2l-4-1-8-7-2-3-5-2-6-7-5-7-7-15-2 2-6-11-4-9-3-9-5-5-7-2-5-5 2-5 5-3-4-2 14-3z" fill="#CBB09B"/>
<path transform="translate(704,573)" d="m0 0 3 2 16 39v3h-3l-3-6v-2h-2l1 5v17l-3 6-9 6-2 2h-6v-2l-4 2h-3l-1-5 1-11 1-3-1-6-3 3h-2l3-9 14-34z" fill="#EBDC96"/>
<path transform="translate(1276,472)" d="m0 0h1l3 9 5 3 9 7 5 5 10 8 2 1v2l6 2 1 3 4 2 6 9 2 6 4 2 9 11 3 7 6 9 2 7h2l7 12 5 15 5 12 5 15 5 12 5 13 7 22 3 11 5 22 2 17 1 12v50l-1 20-1 6-2-4 1-10 1-47-1-24-4-24-2-7-6-22-12-36-4-10-3-8-4-9-7-18-3-10h-2l-8-11-6-14-6-9v-2h-2l-4-5-8-5-5-10-1-3-4-2-9-6v-2l-5-2-5-3-12-3v-2l-6-2-3-4-1-11 1-3 3-1z" fill="#C8A0C6"/>
<path transform="translate(409,598)" d="m0 0 1 3-1 5 2 1-1 3 15-4 4-2 11 1 4-1h9l1 2h5l-1 5-10 5-1 4-19 9-10 3-12 6h-10-3v-9l-3 2 2-6 12-22z" fill="#DEBEAF"/>
<path transform="translate(684,579)" d="m0 0h1v6l-5 12-1-2-5 3-1 2h-2l-1 4-5 2-16-7-6-1-3-1h-10l-42 7 2-3h4v-2h-9l-2-2 2-3 14-4 3-2 8-1 11-1 3-3 8-1h15l3-2 7 2 5 2 6 1 7 1z" fill="#E0CF96"/>
<path transform="translate(948,711)" d="m0 0 7 1 10 9 4 8v17l-4 11-7 8-5 2-1-2-9-3-1-11-1-13-4-18 2-7 5 1 3-1z" fill="#C8AA9C"/>
<path transform="translate(656,646)" d="m0 0h2l-1 9-34 85-7 17-21 7h-13l5-6 9-4 10-8 2-4v-6h2l2-4 7-12 2-6 4-5 6-15 7-13 7-14 9-19z" fill="#EDE593"/>
<path transform="translate(934,927)" d="m0 0 8 1 3 2 6 2 4 5 5 3 13-1 5-3 3 1v3l-12 9-7 5-5-1-3 2h-3l-1 2-4 1h-9l-7-6-3-2-6-2-8-3-4-1-5-2 4-2v-4l3-2z" fill="#EDD2B0"/>
<path transform="translate(781,193)" d="m0 0h12l35 5 33 7 14 5 8 2 2 4 1 6-10 1 2-1v-2l-2-1-1-3-8-4-21-5-15-4-39-5-13-1-15 3-25 4-20 2-17 3-12 3-9 3-13 4-12 5-9 3-11 3-18 7-20 8-19 9-17 9-14 8-16 8-12 8-3 3-4 3-7 3-10 7-3-1 8-6h2v-2l9-5 10-7 10-6 27-15 14-7 17-8 15-8 7-3 29-10 20-6 20-8 17-4 11-3 24-3 19-3 20-4z" fill="#DDC8DC"/>
<path transform="translate(502,442)" d="m0 0 10 2v2l4 2-2 4-11 12-5 4-3-1v2h-2l-1 2v-2h-4l-1-2-7 1-12 2-9 1-14 5h-2v-2l-14 6-5 1v-2l14-6 1-3 14-5 1-1-3-2 10-3 2-4 10-3v-2h9v-3l7-2h8z" fill="#B07CA4"/>
<path transform="translate(441,516)" d="m0 0h7l4 2-3 1h3 3l-1 5-7 9-3 4h-5v2h-3v2l-5 2h-9l-1 2h-4l-1 3-9 1-1 3-8 4h-2l1-6-5 1v-4l-11 2-9-3 4-2 16-7 16-6 6-1 10-4h9l1-3 5-1z" fill="#BF92A3"/>
<path transform="translate(798,253)" d="m0 0 5 1 1 1 12 1 5 2h9l9 3 11 1 20 8 22 10 16 8 15 10v2l4 2 13 8 8 6 2 4-3 2-7-7h-2v-2l-6-2v-2l-6-2-19-11-16-8-21-10-21-7-30-7-26-7v-2z" fill="#B691B8"/>
<path transform="translate(1061,871)" d="m0 0 7 2h5l5 5-1 2 2 1-2 2v2h3v3l6 2 2 4 5 5 1 3 3 3-1 4-6-1-16-6-4-2-4-1-11-3-14-2h-2l-3 3-2-1 22-22z" fill="#CDA5AA"/>
<path transform="translate(394,977)" d="m0 0h7l-3 1 1 6 12 1 21 2h27l2 2 17 2 9 3h6l1 2-9 1h-47l-28-2-24-4-4-2 1-5v-3l4-2z" fill="#F5E7CC"/>
<path transform="translate(395,394)" d="m0 0v3l-5 5-9 11-4 7-9 11-8 12-2 4-6 7-4 9-3 4-27 54-4 11-2 7-6 16-4 10-5 12-3 11-4 10-15 45-7 25h-1l1-9 4-16 4-15 3-9 8-28 5-16 7-16 4-11 6-15 5-12 8-16 8-17 7-13 8-13 6-11 5-7 4-7 11-14 15-20z" fill="#DDC8DC"/>
<path transform="translate(1105,821)" d="m0 0h5l5 5 14 6 5 3-2 3 1 1 3 2 2-2 2 5 5 4 5 3-2 2h-5l-8 4-9-5-5-3-9-8-6-2-12 1-4 1v2l-8 7-4 3 2-4 10-10 7-8z" fill="#B281A3"/>
<path transform="translate(1006,320)" d="m0 0 4 2 5 5 11 8v2l4 2 15 13v2l4 2 6 7 5 4 9 11 11 11 7 8 1 3h2l6 8 8 10 7 7v2h2l4 5 6 5 9 11 5 5v2l4 2 10 8 3 3-5-2-5-3-4-2v-2l-4-2-5-5-9-10v-2h-2l-5-6-2-1v-2l-8-4-3-5-8-7v-2l-3-1-9-11-5-4-5-5-1-3h-2l-9-11-8-10v-2h-2l-3-4v-2l-3-1-6-8-8-7-7-8-11-7-5-5-2-3z" fill="#D6B2CF"/>
<path transform="translate(1038,777)" d="m0 0h3l5 9 2 5h2l-4-8 1-2 4 1 10 18 7 8 3 4v2l4 2 6 12 2 5 5 2-2 1-1 3-5-1-1 4-3-2-2-6h-3l-6-9-5-7-3-5-7-9-6-12-3-7-2-6-2-1z" fill="#BA89A7"/>
<path transform="translate(904,621)" d="m0 0 9 1 1 3h3l5 25 5 6 1 7 4 2-3 2-9-3-13-8-4-4-2-7v-11l1-3v-6h2z" fill="#C8AA9C"/>
<path transform="translate(704,573)" d="m0 0 3 2 16 39v3h-3l-6-12h-2l-5 8-5 5-4 2-3-4-2-3h-3l-2 1 3-10 10-24z" fill="#E1D196"/>
<path transform="translate(723,628)" d="m0 0 3 3 4 6v2h3l9 23v3h-75v-2l12-1 9-3 14-1 15-2 8-3 1-5-3-8-1-11z" fill="#E8DD95"/>
<path transform="translate(439,537)" d="m0 0h4l-2 5-11 15-6 2-8 7h-21l-6 3-1-2v-5l7-4 4-4 7-3 3-3 7-1 3-3 9-2 8-1v-2h3z" fill="#C79EA7"/>
<path transform="translate(481,552)" d="m0 0 3 1-10 5-3 1-2 5-14 5v3l-5 3-18 6-7 2-3-3-2-4 6-9 5 1 6-4 16-6 14-5h5l2 2z" fill="#D5AEAE"/>
<path transform="translate(1224,311)" d="m0 0 3 1v2l5 1 7 1 6 4 8 8 3 10 4-1-3 9-6 8-2 3h-3l-8-19-10-19-4-6z" fill="#E6D6E6"/>
<path transform="translate(331,510)" d="m0 0 2 2-7 14-1 4-3 9-4 13-8 18-6 16-4 10-10 24-6 16-2 9-3 2v-7l2-9 3-8 5-16 3-7 5-16 4-9 7-15 8-19 5-13z" fill="#D6B2CE"/>
<path transform="translate(274,890)" d="m0 0 4 5 10 14 8 11v2h2l8 10 5 1-1 5-5 6-1-3-2 1h-6l-6-9v-2h-2l-4-6-5-9-4-7v-3l-2-1-2-5 3-2v-3z" fill="#ECDBD1"/>
<path transform="translate(956,714)" d="m0 0 4 2 7 8 2 5v17l-4 11-7 8h-2l1-4-3-1-3-3 1-11 1-5v-17h3l-1-3 2-1-2-5z" fill="#C5A59B"/>
<path transform="translate(254,768)" d="m0 0h1l3 37 2 17 3 24 6 21 7 16 6 11v2h2l11 17v2h2l6 9 3 5 4 3-4 1-8-9v-2h-2l-4-6-13-18-8-14-7-14-6-22-2-15-1-19-1-34z" fill="#DFC2CF"/>
<path transform="translate(994,938)" d="m0 0 4 5 9 4v2l2 1-1 1-17 3-9 1-5-1v4l-4 1-3 3-5 4h-5v2l-12 1h-3l18-14 20-15 9-1z" fill="#EBD0AF"/>
<path transform="translate(720,203)" d="m0 0m-11 1h11l-1 2-17 3-12 3-9 3-13 4-12 5-9 3-11 3-18 7-20 8-19 9-17 9-14 8-16 8-12 8-3 3-4 3-7 3-10 7-3-1 8-6h2v-2l9-5 10-7 10-6 27-15 14-7 17-8 15-8 7-3 29-10 20-6 20-8 17-4z" fill="#DEC9DD"/>
<path transform="translate(358,688)" d="m0 0h1l-1 8-13 40-9 37-4 24-2 1-1-7v-10l4-24 6-25 6-18 5-12 5-10z" fill="#E3C5AE"/>
<path transform="translate(1074,858)" d="m0 0h2l1 2h6l6 3v2l5 1 10 5 9 6v2l-9-1h-6l-5-1-4 1-1-1h-12l-3-3h-7l-5-2-4 2 4-5 8-6z" fill="#BF92A3"/>
<path transform="translate(930,913)" d="m0 0h6l1 3 2 2-2 4 2 4-8 3-13 4-7 1-7-2 2-3-3-4 2-1-1-3h2l-1-3 1-3h19z" fill="#EBD4A7"/>
<path transform="translate(1013,845)" d="m0 0 5 5 9 13 6 9 1 4 5 4-2 2 1 3h-2v2h-3l-1 2-8 1-3-7-6-8 1-6-1-5 1-5-3-5z" fill="#CDA6AA"/>
<path transform="translate(1083,848)" d="m0 0 2 1 1 5 6 2 12 6 9 2 7 4 1 4 4 2-3 1 1 2-8 2-7-5-14-7-5-2v-2l-7-2h-5l-1-3-8 7-4 2 6-7 7-7z" fill="#B88AA2"/>
<path transform="translate(881,498)" d="m0 0 4 1 6 7h4l-1 3 8 7 4 4 5 4 3 4 2 7 4 12h2v5l3 6 1 9-3-1-2-10h-6l-4-8-6-13-3-6-2-1-1-9-2-5-4-2-10-9z" fill="#C79EA6"/>
<path transform="translate(977,768)" d="m0 0h1v7l9 9 9 17 2 6v6l6 12v4h-2l-5-7v-3l-4-1-4-10-10-20-7-8 1-6z" fill="#C6A59B"/>
<path transform="translate(395,608)" d="m0 0 2 1-1 5-4 7h-3l-3 3h-2v3h-2l-2 4-6 7-7 4h-7l-6 3-7 2-4 2v-3l10-6h2l2-5 13-8 5-3h2l1-4 10-5z" fill="#D5B8AD"/>
<path transform="translate(552,452)" d="m0 0h2v2l-4 1 2 4-1 1-11 2-6 4-18 6-11 3-3 3-3-1 1-3h2v-3l14-10h3v-2l24-6z" fill="#BA89A7"/>
<path transform="translate(1032,897)" d="m0 0h3v8l3 3 4 3 8 4 2 4 2 2h-9l-7-2-4-1-9-1-11-1h-3l15-13z" fill="#D3B5AC"/>
<path transform="translate(997,930)" d="m0 0 8 1v2l5 2 1 3h5l3 3-2 7-1 2h-7l-2-1v-2l-6-1-7-7-8 2-2-2 10-8z" fill="#E2C7A9"/>
<path transform="translate(784,655)" d="m0 0 3 4 4 8 3 7 6 15 4 13 3 5 1 6-5-1-2-3-3-9-4-4-3-13-1-5h-2l-3-8-3-7v-4h2z" fill="#EDE197"/>
<path transform="translate(297,575)" d="m0 0 2 2-3 14-5 14-10 30-1 5-4 8-3 11-9 26-1-4 3-13h2l1-8 7-23 11-33 4-10 3-9z" fill="#DFC1CE"/>
<path transform="translate(1235,548)" d="m0 0h6l-3 9-9 3-7 1v-2l-4 2-1 2-4-1-12 1-7-1-1-2-6-2 3-1 6 1 20-3 8-3z" fill="#B691B8"/>
<path transform="translate(905,629)" d="m0 0 2 1 1 6 8 16 1 4h2l2 5 2 1-5-1h-3l-9-6-3-3-2-7v-11l1-4z" fill="#CAAD9B"/>
<path transform="translate(384,952)" d="m0 0 12 2 5-1 3 1v2l9 2 6 2 2 4v3l2 2-7-1-26-7 2-1-1-4-7-2z" fill="#DDC79B"/>
<path transform="translate(978,909)" d="m0 0 4 2 5 1 3 4h7l7-2 6-4h4l-2 4-11 9-3 2-2-2-10 1-8-7-1-5z" fill="#DCBDAF"/>
<path transform="translate(1061,871)" d="m0 0 7 2h5l5 5-1 2 2 1-6 3-8-2h-7l-7 1-1-3 6-6z" fill="#C79DA7"/>
<path transform="translate(975,952)" d="m0 0 2 1v5l-4 1-3 3-5 4h-5v2l-12 1h-3l18-14 4-1h3z" fill="#EADCB7"/>
<path transform="translate(289,894)" d="m0 0 5 5 8 11 7 11 4-2h3l1 4-4 11-2 1-1-3 1-2-5-2-4-8v-3h-2l-5-10-6-10z" fill="#DBBBAF"/>
<path transform="translate(936,975)" d="m0 0 2 1-3 4-3 1 1 2h-2v2l-9 7-5 3-2 3h-3v2l-5 4-3-1 2-6-2-1 16-10z" fill="#EEE0C3"/>
<path transform="translate(704,573)" d="m0 0 3 2 6 15v2h-5l-4 3-3-1v-2l-3 1-1 3h-2l3-9 5-13z" fill="#D9C398"/>
<path transform="translate(253,730)" d="m0 0h1v37l1 16 1 31-2 2-1-13-2-12v-14l-1-9 2-32z" fill="#ECDCD2"/>
<path transform="translate(395,394)" d="m0 0v3l-5 5-9 11-4 7-9 11-8 12-2 4-6 7-4 9-3 4-2-1 5-10 8-12 4-7 11-14 15-20z" fill="#DEC9DD"/>
<path transform="translate(1258,424)" d="m0 0h1l2 17v26l-1 18-2 4-1-21z" fill="#AE7CAF"/>
<path transform="translate(1208,391)" d="m0 0 8 1 18 6 6 3-1 2-6 1-6-3h-3v-2l-3 1-5-3-6-1-5 1 1-3-1-2z" fill="#E2CFE2"/>
<path transform="translate(1402,706)" d="m0 0 2 1 2 21v50l-1 20-1 6-2-4 1-10 1-47-1-24-1-5z" fill="#C9A1C7"/>
<path transform="translate(676,646)" d="m0 0 2 1 2 10 4 1 1 3-6 2h-11l3-9 3-6h2z" fill="#EDE493"/>
<path transform="translate(1264,448)" d="m0 0 3 3 3 11v13l-5 1-2 2z" fill="#C398C1"/>
<path transform="translate(956,606)" d="m0 0 5 5 4 11v22h-3l-1-13-1-6v-9l-3-1-2-7z" fill="#AF7CA8"/>
<path transform="translate(962,719)" d="m0 0 5 5 2 5v17l-4 11-5 5 4-10 2-14-2-10-2-4z" fill="#B280A7"/>
<path transform="translate(1034,877)" d="m0 0 5 2-2 3 1 3h-2v2h-3l-1 2-8 1-1-1v-6l3-1 1-3 7 1z" fill="#C9AB9B"/>
<path transform="translate(1400,776)" d="m0 0 2 3-1 20-1 16-2 10h-1v-6l-1-3 1-4 2-35z" fill="#B792B9"/>
<path transform="translate(430,356)" d="m0 0h2v2h-2l-2 4-17 17-9 10-4 5h-2l2-4 9-11h2l2-4 5-5h2l2-4 6-5z" fill="#DEC9DD"/>
<path transform="translate(662,678)" d="m0 0h86v1l-84 1-3 1z" fill="#D3B996"/>
<path transform="translate(417,971)" d="m0 0h7l2 5 14 2-4 2h-10l-9-1-1-4 2-2z" fill="#ECD0AF"/>
<path transform="translate(274,648)" d="m0 0h1l-1 9-6 16-4 12-1-4 3-13h2l1-8 3-10z" fill="#E0C2CF"/>
<path transform="translate(458,330)" d="m0 0 2 1-5 5-4 5h-2v2l-10 8-2 3h-2v2h-3l2-4h2l2-4 8-7 8-8h2v-2z" fill="#DEC9DD"/>
<path transform="translate(491,303)" d="m0 0 2 1-10 8-14 11-7 6v-3l5-5 8-7h2v-2z" fill="#DEC9DD"/>
<path transform="translate(822,755)" d="m0 0 4 1 5 6 7 3v1h-13l-2-1z" fill="#EDE299"/>
<path transform="translate(518,961)" d="m0 0h10l3 2v-2l9 1-2 2-6 2h-9l-6-2z" fill="#F5E5A1"/>
<path transform="translate(512,459)" d="m0 0 3 1v3l-11 8-5 3-3 3-2-1 11-11z" fill="#B687A3"/>
<path transform="translate(1290,425)" d="m0 0 7 3 7 8 11 9-1 2-15-12-9-7z" fill="#DDC8DC"/>
<path transform="translate(1030,1102)" d="m0 0 14 2 18 4 7 1v1h-10l-10-2-13-3-6-1z" fill="#FEFAF1"/>
<path transform="translate(613,757)" d="m0 0h2v2l-27 10-2-2 4-1v-2l15-4z" fill="#E0D0A2"/>
<path transform="translate(849,929)" d="m0 0 5 2-6 4h-3v2h-5l-1-4h3v-2l5 1v-2z" fill="#F6E5A2"/>
<path transform="translate(1044,878)" d="m0 0h4l-2 4-6 5v-2h-2v-2l-4-1 5-3z" fill="#CAA3A9"/>
<path transform="translate(796,699)" d="m0 0 3 1 4 11 1 5h2l2 7-1 4-11-26z" fill="#C9A79D"/>
<path transform="translate(945,672)" d="m0 0 9 2 16 7 2 1v2l-6-2-15-6-6-2z" fill="#BF93A8"/>
<path transform="translate(1234,402)" d="m0 0h7l4 4-2 1v3l-6-2-3-2z" fill="#DBC5DA"/>
<path transform="translate(274,640)" d="m0 0 1 3-7 25h-1l1-9 4-16z" fill="#DEC9DD"/>
<path transform="translate(302,941)" d="m0 0h2l-1 5-6 5-7-1 1-3 9-3z" fill="#F4EAE9"/>
<path transform="translate(1038,1097)" d="m0 0 8 2-1 2-10 1-5-2 4-2z" fill="#FDFAF3"/>
<path transform="translate(871,769)" d="m0 0 6 1 9 4-3 2-9-2-3-3z" fill="#D9C399"/>
<path transform="translate(1254,416)" d="m0 0 3 3 1 2v10l-2-1-3-9z" fill="#C6A3C8"/>
<path transform="translate(860,742)" d="m0 0h1l1 12 4 8 2 3-4-1-4-5z" fill="#BE96A1"/>
<path transform="translate(394,977)" d="m0 0 3 1-6 5-7 1-1-4z" fill="#E6D4BF"/>
<path transform="translate(1262,434)" d="m0 0h1l3 12-2 16h-1z" fill="#AD79AB"/>
<path transform="translate(682,661)" d="m0 0h7l2 2-3 1h-20v-1l11-1z" fill="#F1E99A"/>
<path transform="translate(725,622)" d="m0 0 2 2 5 13v2h-2l-3-4-2-9z" fill="#CCAC9D"/>
<path transform="translate(464,487)" d="m0 0 10 1v3h-9l-3-3z" fill="#B98BA2"/>
<path transform="translate(1327,463)" d="m0 0 5 2 6 9 2 7h-2l-6-12v-2l-4-2z" fill="#DEC9DD"/>
<path transform="translate(998,895)" d="m0 0 7 6 3 4-5-1-4-4-2-4z" fill="#D6B9AD"/>
<path transform="translate(706,575)" d="m0 0 2 3 5 12v2h-2l-4-7z" fill="#C4A09E"/>
<path transform="translate(329,796)" d="m0 0 2 2-1 15-2-4v-11z" fill="#D6B4AB"/>
<path transform="translate(812,738)" d="m0 0h2l3 6v4l3 1v7l-2-2z" fill="#C9A89D"/>
<path transform="translate(1280,449)" d="m0 0h1l-1 8-2 10-1 3h-2l4-18z" fill="#AD7AAE"/>
<path transform="translate(1301,434)" d="m0 0 8 6 6 5-1 2-5-4-9-7z" fill="#DEC9DD"/>
<path transform="translate(331,871)" d="m0 0h1l3 16v6l-2-4-2-8z" fill="#B98EA5"/>
<path transform="translate(370,952)" d="m0 0 10 3 2 1v2l-9-2-4-3z" fill="#DDC2AC"/>
<path transform="translate(364,947)" d="m0 0 6 2 1 3-4 1-4-2z" fill="#E7D0AC"/>
<path transform="translate(961,623)" d="m0 0 2 3v18h-1l-1-13-1-6z" fill="#B788A2"/>
<path transform="translate(713,592)" d="m0 0 2 2 4 10v3h-2l-4-10z" fill="#C19AA0"/>
<path transform="translate(266,668)" d="m0 0h1v9l-3 8-1-4z" fill="#DEC5D6"/>
<path transform="translate(946,768)" d="m0 0h3v2l-6 2h-5l1-3z" fill="#C9A79B"/>
<path transform="translate(766,725)" d="m0 0 2 3 4 11-1 2-4-7z" fill="#C39E9F"/>
</svg>
